<svg width="26" height="26" viewBox="0 0 26 26" fill="none" xmlns="http://www.w3.org/2000/svg">
<path d="M13 25.4C19.8483 25.4 25.4 19.8483 25.4 13C25.4 6.15167 19.8483 0.600006 13 0.600006C6.15167 0.600006 0.600006 6.15167 0.600006 13C0.600006 19.8483 6.15167 25.4 13 25.4Z" fill="white" stroke="#333333" stroke-width="1.2"/>
<path d="M7.70396 7.58325C6.98031 7.58325 6.37988 8.19732 6.37988 8.93742V17.0624C6.37988 17.8025 6.98031 18.4166 7.70396 18.4166H18.2965C19.0202 18.4166 19.6206 17.8025 19.6206 17.0624V8.93742C19.6206 8.19732 19.0202 7.58325 18.2965 7.58325H7.70396ZM7.70396 8.93742H18.2965V17.0624H7.70396V8.93742ZM11.6762 10.2916C11.5006 10.2916 11.3322 10.3629 11.208 10.4899C11.0839 10.6169 11.0141 10.7891 11.0141 10.9687C11.0141 11.1482 11.0839 11.3205 11.208 11.4474C11.3322 11.5744 11.5006 11.6458 11.6762 11.6458C11.8518 11.6458 12.0202 11.5744 12.1443 11.4474C12.2685 11.3205 12.3382 11.1482 12.3382 10.9687C12.3382 10.7891 12.2685 10.6169 12.1443 10.4899C12.0202 10.3629 11.8518 10.2916 11.6762 10.2916ZM14.6553 12.3228L12.3382 15.0312L10.6831 13.3385L8.88062 15.7083H17.138L14.6553 12.3228Z" fill="#333333"/>
</svg>
