<svg width="26" height="26" viewBox="0 0 26 26" fill="none" xmlns="http://www.w3.org/2000/svg">
<path d="M13 25.4C19.8483 25.4 25.4 19.8483 25.4 13C25.4 6.15167 19.8483 0.600006 13 0.600006C6.15167 0.600006 0.600006 6.15167 0.600006 13C0.600006 19.8483 6.15167 25.4 13 25.4Z" fill="white" stroke="#333333" stroke-width="1.2"/>
<path d="M18.3207 18.5491H8.52788C7.80974 18.5491 7.22217 17.9615 7.22217 17.2434V7.45056H8.52788V17.2434H18.3207V18.5491Z" fill="#333333"/>
<path d="M10.2905 14.4361L9.37646 13.5221L13.0977 9.80086L15.0563 11.7594L17.8636 8.95215L18.7776 9.86615L15.0563 13.5874L13.0977 11.6289L10.2905 14.4361Z" fill="#333333"/>
</svg>
