<svg width="26" height="26" viewBox="0 0 26 26" fill="none" xmlns="http://www.w3.org/2000/svg">
<path d="M13 25.4C19.8483 25.4 25.4 19.8483 25.4 13C25.4 6.15167 19.8483 0.600006 13 0.600006C6.15167 0.600006 0.600006 6.15167 0.600006 13C0.600006 19.8483 6.15167 25.4 13 25.4Z" fill="white" stroke="#333333" stroke-width="1.2"/>
<path d="M9.06065 9.71692C7.1415 9.71692 5.60674 11.3637 5.7932 13.3216C5.95603 15.0287 7.48676 16.2826 9.20171 16.2826H11.0304C11.3928 16.2826 11.6869 15.9885 11.6869 15.626C11.6869 15.2636 11.3928 14.9695 11.0304 14.9695H9.17221C8.10595 14.9695 7.14995 14.1705 7.0948 13.1049C7.03505 11.969 7.93792 11.0301 9.06065 11.0301H11.0304C11.3928 11.0301 11.6869 10.7359 11.6869 10.3735C11.6869 10.0111 11.3928 9.71692 11.0304 9.71692H9.06065ZM14.9698 9.71692C14.6073 9.71692 14.3132 10.0111 14.3132 10.3735C14.3132 10.7359 14.6073 11.0301 14.9698 11.0301H16.8279C17.8942 11.0301 18.8502 11.829 18.9053 12.8946C18.9651 14.0305 18.0622 14.9695 16.9395 14.9695H14.9698C14.6073 14.9695 14.3132 15.2636 14.3132 15.626C14.3132 15.9885 14.6073 16.2826 14.9698 16.2826H16.9395C18.8586 16.2826 20.3934 14.6358 20.2069 12.6779C20.0441 10.9708 18.5134 9.71692 16.7984 9.71692H14.9698ZM10.3738 12.3432C10.0114 12.3432 9.71722 12.6373 9.71722 12.9998C9.71722 13.3622 10.0114 13.6563 10.3738 13.6563H15.6263C15.9887 13.6563 16.2829 13.3622 16.2829 12.9998C16.2829 12.6373 15.9887 12.3432 15.6263 12.3432H10.3738Z" fill="#333333"/>
</svg>
