<svg width="26" height="26" viewBox="0 0 26 26" fill="none" xmlns="http://www.w3.org/2000/svg">
<path d="M13 25.4C19.8483 25.4 25.4 19.8483 25.4 13C25.4 6.15167 19.8483 0.600006 13 0.600006C6.15167 0.600006 0.600006 6.15167 0.600006 13C0.600006 19.8483 6.15167 25.4 13 25.4Z" fill="white" stroke="#333333" stroke-width="1.2"/>
<path d="M15.7576 9.71683V16.5446C15.7576 17.6411 14.868 18.6391 13.579 18.8591C11.8071 19.1618 10.2423 18.0357 10.2423 16.6109V8.47786C10.2423 7.82391 10.7765 7.21591 11.551 7.10889C12.5374 6.97298 13.3939 7.60658 13.3939 8.40367V15.2978C13.3939 15.479 13.2166 15.6261 12.9999 15.6261C12.7833 15.6261 12.606 15.479 12.606 15.2978V9.71683C12.606 9.3544 12.253 9.06025 11.8181 9.06025C11.3832 9.06025 11.0302 9.3544 11.0302 9.71683V15.2013C11.0302 16.0601 11.77 16.844 12.7951 16.9307C13.973 17.0305 14.9697 16.259 14.9697 15.2978V8.52054C14.9697 7.1496 13.7697 5.92311 12.1325 5.79048C10.2533 5.63815 8.6665 6.86924 8.6665 8.40367V16.4501C8.6665 18.3351 10.3156 20.0212 12.5658 20.2044C15.1493 20.4152 17.3334 18.7212 17.3334 16.6109V9.71683C17.3334 9.3544 16.9804 9.06025 16.5455 9.06025C16.1106 9.06025 15.7576 9.3544 15.7576 9.71683Z" fill="#333333"/>
</svg>
