<svg width="34" height="29" viewBox="0 0 34 29" fill="none" xmlns="http://www.w3.org/2000/svg">
<g clip-path="url(#clip0)">
<path d="M15.175 0.358729L2.50488 5.60145C1.8003 5.89305 1.8076 6.89384 2.5166 7.17486L15.2397 12.2203C16.3577 12.6637 17.6026 12.6637 18.7204 12.2203L31.4437 7.17486C32.1525 6.89384 32.16 5.89305 31.4552 5.60145L18.7853 0.358729C17.6293 -0.119576 16.3308 -0.119576 15.175 0.358729Z" fill="#FFBF00"/>
<path d="M18.1089 14.9755V27.5797C18.1089 28.1792 18.7134 28.5897 19.2706 28.3688L33.448 22.8658C33.7717 22.7375 33.984 22.4248 33.984 22.0767V9.47252C33.984 8.87301 33.3795 8.46251 32.8222 8.68341L18.6448 14.1864C18.3213 14.3147 18.1089 14.6275 18.1089 14.9755Z" fill="#26B5F8"/>
<path d="M14.7984 15.6259L10.5909 17.6574L10.1637 17.8639L1.28178 22.1197C0.718763 22.3913 0.000152588 21.981 0.000152588 21.3555V9.52544C0.000152588 9.29916 0.116175 9.10381 0.271768 8.95666C0.336695 8.89155 0.410266 8.83795 0.486717 8.7955C0.698977 8.66814 1.00171 8.63415 1.25911 8.73595L14.7277 14.0724C15.4123 14.344 15.4661 15.3033 14.7984 15.6259Z" fill="#ED3049"/>
<path d="M14.7986 15.6259L10.591 17.6574L0.271912 8.95666C0.336838 8.89155 0.410409 8.83795 0.486861 8.7955C0.699121 8.66814 1.00186 8.63415 1.25926 8.73595L14.7279 14.0724C15.4125 14.344 15.4663 15.3033 14.7986 15.6259Z" fill="black" fill-opacity="0.25"/>
</g>
<defs>
<clipPath id="clip0">
<rect width="34" height="28.5547" fill="white"/>
</clipPath>
</defs>
</svg>
