<svg width="14" height="14" viewBox="0 0 14 14" fill="none" xmlns="http://www.w3.org/2000/svg">
<path d="M11.2875 5.85667C10.8908 3.84417 9.12333 2.33333 7 2.33333C5.31417 2.33333 3.85 3.29 3.12083 4.69C1.365 4.87667 0 6.36417 0 8.16667C0 9.09492 0.368749 9.98516 1.02513 10.6415C1.6815 11.2979 2.57174 11.6667 3.5 11.6667H11.0833C11.4664 11.6667 11.8456 11.5912 12.1995 11.4446C12.5534 11.2981 12.8749 11.0832 13.1457 10.8124C13.4166 10.5416 13.6314 10.22 13.778 9.86616C13.9246 9.51229 14 9.13302 14 8.75C14 7.21 12.8042 5.96167 11.2875 5.85667ZM11.0833 10.5H3.5C2.88116 10.5 2.28767 10.2542 1.85008 9.81658C1.4125 9.379 1.16667 8.7855 1.16667 8.16667C1.16667 6.97083 2.05917 5.97333 3.24333 5.85083L3.8675 5.78667L4.15917 5.2325C4.71333 4.165 5.79833 3.5 7 3.5C8.52833 3.5 9.84667 4.585 10.1442 6.08417L10.3192 6.95917L11.2117 7.02333C12.1217 7.08167 12.8333 7.84583 12.8333 8.75C12.8333 9.21413 12.649 9.65925 12.3208 9.98744C11.9926 10.3156 11.5475 10.5 11.0833 10.5ZM4.66667 7.58333H6.15417V9.33333H7.84583V7.58333H9.33333L7 5.25L4.66667 7.58333Z" fill="#666666"/>
</svg>
