<svg width="15" height="12" viewBox="0 0 15 12" fill="none" xmlns="http://www.w3.org/2000/svg">
<path d="M11.7704 6.89965C11.7704 6.72155 11.7078 6.55964 11.5826 6.4463L5.74435 0.4878C5.63478 0.374459 5.49391 0.309697 5.33739 0.309697L0.673043 0.00205297C0.485217 -0.0141386 0.313043 0.0668113 0.187826 0.196344C0.0626087 0.325876 0 0.503999 0 0.698298L0.297391 5.44241C0.313043 5.60433 0.375652 5.75005 0.485217 5.86339L6.33913 11.8057C6.46435 11.9352 6.62087 12 6.77739 12C6.93391 12 7.09043 11.9352 7.21565 11.8057L11.5826 7.36921C11.7078 7.23968 11.7704 7.07776 11.7704 6.89965ZM6.77739 10.4294L1.53391 5.1024L1.29913 1.34596L5.02435 1.58883L10.2522 6.89965L6.77739 10.4294ZM4.06957 2.78699C4.24174 2.9651 4.3513 3.22418 4.3513 3.46705C4.3513 3.72612 4.25739 3.96898 4.06957 4.14709C3.89739 4.3252 3.64696 4.43854 3.39652 4.43854C3.14609 4.43854 2.9113 4.34139 2.72348 4.14709C2.5513 3.96898 2.44174 3.70992 2.44174 3.46705C2.44174 3.20799 2.53565 2.9651 2.72348 2.78699C2.89565 2.60889 3.14609 2.49556 3.39652 2.49556C3.64696 2.49556 3.89739 2.60889 4.06957 2.78699ZM14.4 6.89965C14.4 7.04538 14.3374 7.1911 14.2435 7.30444L9.87652 11.7409C9.76696 11.8543 9.62609 11.9029 9.48522 11.9029C9.34435 11.9029 9.20348 11.8543 9.09391 11.7409C8.87478 11.5143 8.87478 11.158 9.09391 10.9475L13.0696 6.91584L7.62261 1.37834C7.40348 1.15165 7.40348 0.795436 7.62261 0.584945C7.84174 0.358263 8.18609 0.358263 8.40522 0.584945L14.2591 6.52726C14.3374 6.60822 14.4 6.75393 14.4 6.89965Z" fill="#666666"/>
</svg>
