<svg width="135" height="103" viewBox="0 0 135 103" fill="none" xmlns="http://www.w3.org/2000/svg">
<g clip-path="url(#clip0)">
<path d="M91.9895 15.2425C94.7974 12.4364 94.7974 7.88688 91.9895 5.08082C89.1815 2.27476 84.629 2.27476 81.821 5.08082L25.2167 61.6473C22.4088 64.4533 22.4088 69.0029 25.2167 71.8089C28.0247 74.615 32.5772 74.615 35.3852 71.8089L91.9895 15.2425Z" fill="#BFEBFE"/>
<path d="M91.9895 34.4034C94.7974 31.5973 94.7974 27.0478 91.9895 24.2418C89.1815 21.4357 84.629 21.4357 81.821 24.2418L18.2628 87.7576C15.4548 90.5636 15.4548 95.1131 18.2628 97.9192C21.0707 100.725 25.6233 100.725 28.4312 97.9192L91.9895 34.4034Z" fill="#BFEBFE"/>
<path d="M110.927 34.4034C113.735 31.5973 113.735 27.0478 110.927 24.2418C108.119 21.4357 103.567 21.4357 100.759 24.2418L37.2004 87.7576C34.3924 90.5636 34.3924 95.1131 37.2004 97.9192C40.0083 100.725 44.5609 100.725 47.3688 97.9192L110.927 34.4034Z" fill="#BFEBFE"/>
<path d="M129.867 34.4034C132.675 31.5973 132.675 27.0478 129.867 24.2418C127.059 21.4357 122.506 21.4357 119.698 24.2418L56.14 87.7576C53.332 90.5636 53.332 95.1131 56.14 97.9192C58.9479 100.725 63.5005 100.725 66.3084 97.9192L129.867 34.4034Z" fill="#BFEBFE"/>
<path d="M71.8567 15.2425C74.6646 12.4364 74.6646 7.88688 71.8567 5.08082C69.0487 2.27476 64.4962 2.27476 61.6882 5.08082L5.08395 61.6473C2.27602 64.4533 2.27602 69.0029 5.08396 71.8089C7.89189 74.615 12.4445 74.615 15.2524 71.8089L71.8567 15.2425Z" fill="#BFEBFE"/>
<path d="M28.765 83.5108C28.765 84.031 28.3427 84.4531 27.8218 84.4531C27.301 84.4531 26.8787 84.031 26.8787 83.5108C26.8787 82.9901 27.301 82.5685 27.8218 82.5685C28.3427 82.5685 28.765 82.9901 28.765 83.5108ZM35.3668 83.5108C35.3668 82.9901 34.9445 82.5685 34.4237 82.5685C33.9028 82.5685 33.4805 82.9901 33.4805 83.5108C33.4805 84.031 33.9028 84.4531 34.4237 84.4531C34.9445 84.4531 35.3668 84.031 35.3668 83.5108Z" fill="#FFA726"/>
<path d="M27.5751 81.881C27.5586 78.8831 34.6376 79.8896 34.6484 81.8418L34.6614 84.1983C34.6722 86.15 33.0975 87.7411 31.1443 87.752C29.1911 87.7629 27.5989 86.1892 27.588 84.2371L27.5751 81.881Z" fill="#FFB74D"/>
<path d="M35.1052 81.7053C34.9934 80.298 34.5013 78.9117 32.7731 78.5628L32.3015 77.8559H31.1226C28.9466 77.8559 27.1144 79.6186 27.1144 82.0971V82.898L27.8217 83.7463V82.3325L32.7731 80.6833L34.4235 82.0971V83.7463L35.1308 82.898V82.0971C35.1308 81.9642 35.1207 81.8337 35.1052 81.7053Z" fill="#FFE082"/>
<path d="M33.2448 83.7463C33.2448 84.0068 33.0337 84.2177 32.7732 84.2177C32.5124 84.2177 32.3017 84.0068 32.3017 83.7463C32.3017 83.4862 32.5124 83.2753 32.7732 83.2753C33.0337 83.2753 33.2448 83.4862 33.2448 83.7463ZM29.9438 83.7463C29.9438 83.4862 29.7326 83.2753 29.4723 83.2753C29.2115 83.2753 29.0007 83.4862 29.0007 83.7463C29.0007 84.0068 29.2115 84.2177 29.4723 84.2177C29.7326 84.2177 29.9438 84.0068 29.9438 83.7463Z" fill="#784719"/>
<path d="M29.9437 85.8669H32.3015C32.3015 85.8669 31.83 86.5737 31.1226 86.5737C30.4153 86.5737 29.9437 85.8669 29.9437 85.8669Z" fill="#FB8C00"/>
<path d="M40.015 38.3725C40.015 38.3725 37.5898 37.5647 35.5689 37.5647C33.5479 37.5647 31.1228 38.3725 31.1228 38.3725V33.5255H40.015V38.3725Z" fill="#3E2723"/>
<path d="M31.5269 31.9098C31.5269 32.8017 30.803 33.5255 29.9102 33.5255C29.0173 33.5255 28.2934 32.8017 28.2934 31.9098C28.2934 31.0176 29.0173 30.2941 29.9102 30.2941C30.803 30.2941 31.5269 31.0176 31.5269 31.9098ZM42.8443 31.9098C42.8443 32.8017 42.1204 33.5255 41.2275 33.5255C40.3347 33.5255 39.6108 32.8017 39.6108 31.9098C39.6108 31.0176 40.3347 30.2941 41.2275 30.2941C42.1204 30.2941 42.8443 31.0176 42.8443 31.9098Z" fill="#FFA726"/>
<path d="M41.2276 27.8706C41.2276 22.7307 29.9102 24.5241 29.9102 27.8706V31.5059C29.9102 34.8528 32.4441 37.5647 35.5689 37.5647C38.6937 37.5647 41.2276 34.8528 41.2276 31.5059V27.8706Z" fill="#E5852E"/>
<path d="M38.8024 31.102C38.8024 31.5487 38.4402 31.9098 37.994 31.9098C37.5474 31.9098 37.1856 31.5487 37.1856 31.102C37.1856 30.6556 37.5474 30.2941 37.994 30.2941C38.4402 30.2941 38.8024 30.6556 38.8024 31.102ZM33.9521 31.102C33.9521 30.6556 33.5899 30.2941 33.1437 30.2941C32.6971 30.2941 32.3353 30.6556 32.3353 31.102C32.3353 31.5487 32.6971 31.9098 33.1437 31.9098C33.5899 31.9098 33.9521 31.5487 33.9521 31.102Z" fill="#212121"/>
<path d="M35.5689 22.2157C32.1312 22.2157 27.1318 24.2353 27.0808 35.1412L31.1228 38.3726V30.2941L37.994 26.6588L40.015 29.4863V38.3726L44.0569 35.1412C44.0569 30.2941 43.8374 23.4275 37.994 23.4275L37.1856 22.2157H35.5689Z" fill="#6D4C41"/>
<path d="M33.5479 34.7372H37.5898C37.5898 34.7372 36.7814 35.949 35.5689 35.949C34.3563 35.949 33.5479 34.7372 33.5479 34.7372Z" fill="#FFAB91"/>
<path d="M117.62 19.9941H78.4132C77.6319 19.9941 76.9985 20.6271 76.9985 21.4078V35.949C76.9985 36.7298 77.6319 37.3627 78.4132 37.3627H117.62C118.401 37.3627 119.034 36.7298 119.034 35.949V21.4078C119.034 20.6271 118.401 19.9941 117.62 19.9941Z" fill="white" stroke="#CCCCCC"/>
<path d="M83.2635 29.2843C82.4595 29.2843 81.6883 29.6035 81.12 30.1716C80.5513 30.7397 80.232 31.5103 80.232 32.3137C80.232 33.1172 80.5513 33.8877 81.12 34.4558C81.6883 35.0239 82.4595 35.3431 83.2635 35.3431C84.0674 35.3431 84.8386 35.0239 85.4069 34.4558C85.9756 33.8877 86.2949 33.1172 86.2949 32.3137C86.2949 31.5103 85.9756 30.7397 85.4069 30.1716C84.8386 29.6035 84.0674 29.2843 83.2635 29.2843Z" fill="#EDE7F6"/>
<path d="M83.2635 35.3431C83.9453 35.3431 84.567 35.1159 85.067 34.7373C84.976 33.5861 83.8241 33.374 83.8241 33.374L83.2635 33.4952L82.7025 33.374C82.7025 33.374 81.5505 33.5861 81.4596 34.7373C81.96 35.1159 82.5812 35.3431 83.2635 35.3431Z" fill="#673AB7"/>
<path d="M83.2635 34.2828C83.7336 34.2828 84.1123 33.9345 84.158 33.4801C84.0213 33.4195 83.9154 33.3892 83.8548 33.374C83.8548 33.7073 83.582 33.9648 83.2485 33.9648C82.9151 33.9648 82.6422 33.6921 82.6422 33.374C82.5816 33.3892 82.4753 33.4195 82.3391 33.4801C82.4147 33.9345 82.7938 34.2828 83.2635 34.2828Z" fill="#311B92"/>
<path d="M84.4761 32.0865C84.4761 32.2077 84.3702 32.3137 84.2489 32.3137C84.1272 32.3137 84.0213 32.2077 84.0213 32.0865C84.0213 31.9653 84.1272 31.8593 84.2489 31.8593C84.3702 31.8593 84.4761 31.9653 84.4761 32.0865ZM82.5056 32.0865C82.5056 31.9653 82.3997 31.8593 82.2781 31.8593C82.1568 31.8593 82.0509 31.9653 82.0509 32.0865C82.0509 32.2077 82.1568 32.3137 82.2781 32.3137C82.3997 32.3137 82.5056 32.2077 82.5056 32.0865Z" fill="#EDBD28"/>
<path d="M83.2635 33.9799C82.6572 33.9799 82.6572 33.374 82.6572 33.374V32.7681H83.8698V33.374C83.8698 33.374 83.8698 33.9799 83.2635 33.9799Z" fill="#EDB405"/>
<path d="M84.3245 31.5109C84.3245 30.6173 82.2025 30.9353 82.2025 31.5109V32.1774C82.2025 32.753 82.6721 33.2225 83.2635 33.2225C83.8548 33.2225 84.3245 32.753 84.3245 32.1774V31.5109Z" fill="#FFCA28"/>
<path d="M83.2635 30.3446C82.5206 30.3446 82.0509 30.9959 82.0509 31.5867V31.8593L82.354 32.1623V31.5564L83.7485 31.102L84.1729 31.5564V32.1623L84.4761 31.8593V31.7381C84.4761 31.2534 84.3548 30.7081 83.7485 30.587L83.6272 30.3446H83.2635Z" fill="#795548"/>
<path d="M83.5666 32.0108C83.5666 31.9199 83.6272 31.8593 83.7182 31.8593C83.8091 31.8593 83.8698 31.9199 83.8698 32.0108C83.8698 32.1017 83.8091 32.1623 83.7182 32.1623C83.6272 32.1623 83.5666 32.1017 83.5666 32.0108ZM82.6572 32.0108C82.6572 32.1017 82.7178 32.1623 82.8088 32.1623C82.8997 32.1623 82.9603 32.1017 82.9603 32.0108C82.9603 31.9199 82.8997 31.8593 82.8088 31.8593C82.7178 31.8593 82.6572 31.9199 82.6572 32.0108Z" fill="#784719"/>
<path d="M90.9431 29.2843C90.1392 29.2843 89.368 29.6035 88.7997 30.1716C88.231 30.7397 87.9117 31.5103 87.9117 32.3137C87.9117 33.1172 88.231 33.8877 88.7997 34.4558C89.368 35.0239 90.1392 35.3431 90.9431 35.3431C91.7471 35.3431 92.5183 35.0239 93.0866 34.4558C93.6552 33.8877 93.9746 33.1172 93.9746 32.3137C93.9746 31.5103 93.6552 30.7397 93.0866 30.1716C92.5183 29.6035 91.7471 29.2843 90.9431 29.2843Z" fill="#EDE7F6"/>
<path d="M90.0337 31.4428H91.8525V33.4876H90.0337V31.4428Z" fill="#4E342E"/>
<path d="M90.9431 35.3431C91.6226 35.3431 92.2474 35.1171 92.7527 34.74C92.6597 33.6226 91.5494 33.374 91.5494 33.374H90.3368C90.3368 33.374 89.2261 33.6185 89.1331 34.74C89.6388 35.1171 90.2637 35.3431 90.9431 35.3431Z" fill="#FF1744"/>
<path d="M90.9431 33.942C90.7248 33.942 90.4128 33.374 90.4128 33.374V32.6167H91.4734V33.374C91.4734 33.374 91.1614 33.942 90.9431 33.942Z" fill="#C16E14"/>
<path d="M92.0041 32.1623C92.0041 32.7269 91.5082 33.2226 90.9431 33.2226C90.3781 33.2226 89.8821 32.7269 89.8821 32.1623V31.2534C89.8821 30.6888 92.0041 30.3861 92.0041 31.2534V32.1623ZM90.9431 34.1314C91.3829 34.1314 91.4734 33.374 91.4734 33.374C91.4734 33.374 91.1913 33.8284 90.9431 33.8284C90.6949 33.8284 90.4128 33.374 90.4128 33.374C90.4128 33.374 90.5034 34.1314 90.9431 34.1314Z" fill="#E5852E"/>
<path d="M91.2462 32.0108C91.2462 31.9273 91.3141 31.8593 91.3978 31.8593C91.4815 31.8593 91.5494 31.9273 91.5494 32.0108C91.5494 32.0942 91.4815 32.1623 91.3978 32.1623C91.3141 32.1623 91.2462 32.0942 91.2462 32.0108ZM90.3368 32.0108C90.3368 32.0942 90.4047 32.1623 90.4884 32.1623C90.5721 32.1623 90.64 32.0942 90.64 32.0108C90.64 31.9273 90.5721 31.8593 90.4884 31.8593C90.4047 31.8593 90.3368 31.9273 90.3368 32.0108Z" fill="#212121"/>
<path d="M90.9431 30.3446C90.1622 30.1323 89.3583 31.5831 89.3264 34.1314C89.5365 33.812 89.6812 33.6605 90.0337 33.4876V31.8593L91.3978 31.1019L91.8525 31.7078V33.4843C92.1702 33.642 92.3141 33.8205 92.5599 34.1314C92.5433 33.4851 92.5514 30.3253 91.3978 30.5718L91.2463 30.3446H90.9431Z" fill="#6D4C41"/>
<path d="M98.6228 29.2843C97.8188 29.2843 97.0476 29.6035 96.4793 30.1716C95.9107 30.7397 95.5913 31.5103 95.5913 32.3137C95.5913 33.1172 95.9107 33.8877 96.4793 34.4558C97.0476 35.0239 97.8188 35.3431 98.6228 35.3431C99.4267 35.3431 100.198 35.0239 100.766 34.4558C101.335 33.8877 101.654 33.1172 101.654 32.3137C101.654 31.5103 101.335 30.7397 100.766 30.1716C100.198 29.6035 99.4267 29.2843 98.6228 29.2843Z" fill="#EDE7F6"/>
<path d="M97.7133 31.4428H99.5322V33.4876H97.7133V31.4428Z" fill="#4E342E"/>
<path d="M98.6227 35.3431C99.3022 35.3431 99.9271 35.1171 100.432 34.74C100.339 33.6226 99.229 33.374 99.229 33.374H98.0165C98.0165 33.374 96.9057 33.6185 96.8128 34.74C97.3184 35.1171 97.9433 35.3431 98.6227 35.3431Z" fill="#19B9FD"/>
<path d="M98.6228 33.942C98.4045 33.942 98.0925 33.374 98.0925 33.374V32.6167H99.1531V33.374C99.1531 33.374 98.841 33.942 98.6228 33.942Z" fill="#C49D7A"/>
<path d="M99.6838 32.1623C99.6838 32.7269 99.1878 33.2226 98.6228 33.2226C98.0577 33.2226 97.5618 32.7269 97.5618 32.1623V31.2534C97.5618 30.6888 99.6838 30.3861 99.6838 31.2534V32.1623ZM98.6228 34.1314C99.0625 34.1314 99.1531 33.374 99.1531 33.374C99.1531 33.374 98.8709 33.8284 98.6228 33.8284C98.3746 33.8284 98.0925 33.374 98.0925 33.374C98.0925 33.374 98.183 34.1314 98.6228 34.1314Z" fill="#FFD4AD"/>
<path d="M98.9259 32.0108C98.9259 31.9273 98.9938 31.8593 99.0775 31.8593C99.1611 31.8593 99.229 31.9273 99.229 32.0108C99.229 32.0942 99.1611 32.1623 99.0775 32.1623C98.9938 32.1623 98.9259 32.0942 98.9259 32.0108ZM98.0164 32.0108C98.0164 32.0942 98.0844 32.1623 98.168 32.1623C98.2517 32.1623 98.3196 32.0942 98.3196 32.0108C98.3196 31.9273 98.2517 31.8593 98.168 31.8593C98.0844 31.8593 98.0164 31.9273 98.0164 32.0108Z" fill="#494949"/>
<path d="M98.6228 30.3446C97.932 30.3446 96.9555 30.661 96.9555 32.9196L97.7133 33.4876V31.8593L99.0775 31.102L99.5322 31.7078V33.5255L100.29 32.7681C100.29 32.3109 100.251 30.5718 99.0775 30.5718L98.9259 30.3446H98.6228Z" fill="#F6F890"/>
<path d="M106.302 29.2843C105.498 29.2843 104.727 29.6035 104.159 30.1716C103.59 30.7397 103.271 31.5103 103.271 32.3137C103.271 33.1172 103.59 33.8877 104.159 34.4558C104.727 35.0239 105.498 35.3431 106.302 35.3431C107.106 35.3431 107.878 35.0239 108.446 34.4558C109.015 33.8877 109.334 33.1172 109.334 32.3137C109.334 31.5103 109.015 30.7397 108.446 30.1716C107.878 29.6035 107.106 29.2843 106.302 29.2843Z" fill="#EDE7F6"/>
<path d="M106.302 35.3431C106.984 35.3431 107.606 35.1159 108.106 34.7373C108.015 33.5861 106.863 33.374 106.863 33.374L106.302 33.4952L105.741 33.374C105.741 33.374 104.589 33.5861 104.498 34.7373C104.999 35.1159 105.62 35.3431 106.302 35.3431Z" fill="#F36A6A"/>
<path d="M106.302 34.2828C106.772 34.2828 107.151 33.9345 107.197 33.4801C107.06 33.4195 106.954 33.3892 106.894 33.374C106.894 33.7073 106.621 33.9648 106.287 33.9648C105.954 33.9648 105.681 33.6921 105.681 33.374C105.621 33.3892 105.514 33.4195 105.378 33.4801C105.454 33.9345 105.833 34.2828 106.302 34.2828Z" fill="#311B92"/>
<path d="M107.515 32.0865C107.515 32.2077 107.409 32.3137 107.288 32.3137C107.166 32.3137 107.06 32.2077 107.06 32.0865C107.06 31.9653 107.166 31.8593 107.288 31.8593C107.409 31.8593 107.515 31.9653 107.515 32.0865ZM105.545 32.0865C105.545 31.9653 105.439 31.8593 105.317 31.8593C105.196 31.8593 105.09 31.9653 105.09 32.0865C105.09 32.2077 105.196 32.3137 105.317 32.3137C105.439 32.3137 105.545 32.2077 105.545 32.0865Z" fill="#B55D0D"/>
<path d="M106.302 33.9799C105.696 33.9799 105.696 33.374 105.696 33.374V32.7681H106.909V33.374C106.909 33.374 106.909 33.9799 106.302 33.9799Z" fill="#894609"/>
<path d="M107.363 31.5109C107.363 30.6173 105.241 30.9353 105.241 31.5109V32.1774C105.241 32.753 105.711 33.2225 106.302 33.2225C106.894 33.2225 107.363 32.753 107.363 32.1774V31.5109Z" fill="#B55D0D"/>
<path d="M105.696 30.4961C104.953 30.4961 105.09 30.9959 105.09 31.5867V31.8593L105.393 32.1623V31.5564L106.787 31.102L107.212 31.5564V32.1623L107.515 31.8593V31.7381C107.515 31.2534 107.394 30.7081 106.787 30.587L106.666 30.3446L105.696 30.4961Z" fill="black"/>
<path d="M106.606 32.0108C106.606 31.9199 106.666 31.8593 106.757 31.8593C106.848 31.8593 106.909 31.9199 106.909 32.0108C106.909 32.1017 106.848 32.1623 106.757 32.1623C106.666 32.1623 106.606 32.1017 106.606 32.0108ZM105.696 32.0108C105.696 32.1017 105.757 32.1623 105.848 32.1623C105.939 32.1623 105.999 32.1017 105.999 32.0108C105.999 31.9199 105.939 31.8593 105.848 31.8593C105.757 31.8593 105.696 31.9199 105.696 32.0108Z" fill="#212121"/>
<path d="M81.1617 24.6473H80.7009V23.7506H81.1617C81.3234 23.7506 81.4487 23.791 81.5376 23.8718C81.6265 23.9526 81.675 24.0616 81.675 24.1989C81.675 24.3363 81.6265 24.4453 81.5376 24.5261C81.4487 24.6069 81.3234 24.6473 81.1617 24.6473ZM81.2466 25.9318H80.7009V24.9624H81.2466C81.3436 24.9624 81.4325 24.9785 81.5052 25.0028C81.578 25.027 81.6386 25.0633 81.6871 25.1078C81.7356 25.1522 81.768 25.2047 81.7922 25.2613C81.8165 25.3178 81.8286 25.3824 81.8286 25.4471C81.8286 25.5157 81.8165 25.5804 81.7922 25.6369C81.768 25.6935 81.7356 25.746 81.6871 25.7904C81.6386 25.8348 81.578 25.8712 81.5052 25.8954C81.4325 25.9197 81.3436 25.9318 81.2466 25.9318ZM80.3614 23.4275V26.2549H81.2466C81.384 26.2549 81.5133 26.2388 81.6265 26.1984C81.7397 26.162 81.8367 26.1095 81.9175 26.0368C81.9984 25.9681 82.059 25.8833 82.1035 25.7823C82.1439 25.6813 82.1681 25.5682 82.1681 25.439C82.1681 25.3017 82.1439 25.1926 82.0994 25.1037C82.0509 25.0149 82.0024 24.9462 81.9458 24.8937C81.8892 24.8452 81.8326 24.8089 81.7841 24.7887C81.7356 24.7685 81.7033 24.7564 81.6952 24.7523C81.7033 24.7523 81.7235 24.7402 81.7558 24.72C81.7882 24.6998 81.8246 24.6675 81.865 24.6231C81.9054 24.5786 81.9377 24.5221 81.9701 24.4494C81.9984 24.3767 82.0145 24.2878 82.0145 24.1828C82.0145 24.0697 81.9943 23.9687 81.9539 23.8758C81.9135 23.7869 81.8529 23.7062 81.7761 23.6375C81.6993 23.5729 81.6063 23.5204 81.4931 23.484C81.3799 23.4477 81.2506 23.4275 81.1051 23.4275H80.3614ZM83.3989 25.9883C83.3019 25.9883 83.217 25.9722 83.1402 25.9358C83.0634 25.9035 82.9987 25.855 82.9462 25.7944C82.8896 25.7338 82.8492 25.6611 82.8209 25.5804C82.7886 25.4996 82.7764 25.4148 82.7764 25.3218C82.7764 25.233 82.7886 25.1441 82.8209 25.0633C82.8492 24.9826 82.8896 24.9139 82.9462 24.8533C82.9987 24.7927 83.0634 24.7442 83.1402 24.7079C83.217 24.6756 83.3019 24.6554 83.3989 24.6554C83.4919 24.6554 83.5767 24.6756 83.6535 24.7079C83.7303 24.7442 83.795 24.7927 83.8516 24.8533C83.9041 24.9139 83.9445 24.9826 83.9769 25.0633C84.0052 25.1441 84.0213 25.233 84.0213 25.3218C84.0213 25.4148 84.0052 25.4996 83.9769 25.5804C83.9445 25.6611 83.9041 25.7338 83.8516 25.7944C83.795 25.855 83.7303 25.9035 83.6535 25.9358C83.5767 25.9722 83.4919 25.9883 83.3989 25.9883ZM83.3989 24.3403C83.2615 24.3403 83.1321 24.3686 83.0149 24.4171C82.8977 24.4696 82.7966 24.5382 82.7118 24.6271C82.6228 24.716 82.5582 24.8169 82.5097 24.9381C82.4612 25.0593 82.4369 25.1845 82.4369 25.3218C82.4369 25.4592 82.4612 25.5884 82.5097 25.7096C82.5582 25.8308 82.6228 25.9318 82.7118 26.0206C82.7966 26.1095 82.8977 26.1782 83.0149 26.2266C83.1321 26.2791 83.2615 26.3034 83.3989 26.3034C83.5363 26.3034 83.6616 26.2791 83.7788 26.2266C83.896 26.1782 83.9971 26.1095 84.086 26.0206C84.1709 25.9318 84.2396 25.8308 84.2881 25.7096C84.3366 25.5884 84.3609 25.4592 84.3609 25.3218C84.3609 25.1845 84.3366 25.0593 84.2881 24.9381C84.2396 24.8169 84.1709 24.716 84.086 24.6271C83.9971 24.5382 83.896 24.4696 83.7788 24.4171C83.6616 24.3686 83.5363 24.3403 83.3989 24.3403ZM85.4239 26.0045C85.3673 26.0045 85.3148 26.0004 85.2663 25.9843C85.2177 25.9722 85.1733 25.952 85.1329 25.9237C85.0924 25.8995 85.0601 25.8631 85.0359 25.8227C85.0116 25.7823 84.9995 25.7298 84.9995 25.6733C84.9995 25.5723 85.0399 25.4875 85.1248 25.4228C85.2056 25.3582 85.3228 25.3259 85.4764 25.3259C85.5734 25.3259 85.6624 25.342 85.7513 25.3663C85.8362 25.3905 85.9049 25.4228 85.9615 25.4592V25.7217C85.9089 25.7864 85.8362 25.851 85.7472 25.9116C85.6583 25.9762 85.5492 26.0045 85.4239 26.0045ZM85.4886 24.3403C85.343 24.3403 85.2097 24.3605 85.0884 24.4009C84.9671 24.4413 84.8661 24.4857 84.7893 24.5302L84.9308 24.8129C85.0157 24.7685 85.1086 24.7321 85.2056 24.6998C85.3026 24.6715 85.3956 24.6554 85.4845 24.6554C85.5209 24.6554 85.5654 24.6635 85.6219 24.6715C85.6785 24.6796 85.7311 24.6998 85.7796 24.7321C85.8281 24.7644 85.8725 24.8089 85.9089 24.8654C85.9412 24.922 85.9615 24.9987 85.9615 25.0957V25.1966C85.9008 25.1603 85.824 25.1239 85.727 25.0916C85.63 25.0593 85.5209 25.0431 85.4037 25.0431C85.2986 25.0431 85.1975 25.0593 85.1086 25.0916C85.0157 25.1239 84.9348 25.1643 84.8701 25.2209C84.8055 25.2774 84.7529 25.342 84.7165 25.4188C84.6761 25.4955 84.66 25.5804 84.66 25.6733C84.66 25.7742 84.6802 25.8631 84.7206 25.9398C84.761 26.0206 84.8136 26.0853 84.8823 26.1378C84.9469 26.1943 85.0237 26.2347 85.1046 26.263C85.1854 26.2913 85.2703 26.3034 85.3592 26.3034C85.4845 26.3034 85.6017 26.2751 85.7149 26.2186C85.8281 26.162 85.917 26.0812 85.9898 25.9843V26.2549H86.301V25.027C86.301 24.9422 86.2808 24.8573 86.2484 24.7766C86.2161 24.6958 86.1636 24.619 86.0989 24.5544C86.0342 24.4898 85.9493 24.4413 85.8483 24.4009C85.7432 24.3605 85.626 24.3403 85.4886 24.3403ZM87.6578 24.3403C87.5932 24.3403 87.5326 24.3524 87.48 24.3686C87.4234 24.3888 87.3749 24.413 87.3345 24.4453C87.29 24.4777 87.2496 24.51 87.2173 24.5504C87.1849 24.5908 87.1567 24.6352 87.1324 24.6756V24.3888H86.8171V26.2549H87.1567V24.9704C87.1728 24.9381 87.193 24.9018 87.2173 24.8614C87.2415 24.825 87.2739 24.7927 87.3102 24.7604C87.3466 24.7321 87.387 24.7079 87.4355 24.6877C87.48 24.6675 87.5326 24.6554 87.5932 24.6554C87.6215 24.6554 87.6538 24.6594 87.6942 24.6675C87.7346 24.6756 87.767 24.6837 87.7993 24.6958L87.9246 24.3888C87.8802 24.3726 87.8357 24.3605 87.7872 24.3524C87.7387 24.3444 87.6983 24.3403 87.6578 24.3403ZM89.5693 24.9785V25.6652C89.545 25.7056 89.5167 25.7419 89.4844 25.7783C89.4521 25.8187 89.4116 25.851 89.3631 25.8833C89.3146 25.9156 89.2621 25.9398 89.2055 25.96C89.1489 25.9802 89.0842 25.9883 89.0115 25.9883C88.9185 25.9883 88.8336 25.9722 88.7609 25.9358C88.6841 25.9035 88.6194 25.855 88.5669 25.7944C88.5143 25.7338 88.4739 25.6611 88.4456 25.5804C88.4133 25.4996 88.4012 25.4148 88.4012 25.3218C88.4012 25.233 88.4133 25.1441 88.4456 25.0633C88.4739 24.9826 88.5143 24.9139 88.5709 24.8533C88.6235 24.7927 88.6881 24.7442 88.7649 24.7079C88.8377 24.6756 88.9226 24.6554 89.0155 24.6554C89.1449 24.6554 89.258 24.6877 89.351 24.7523C89.4399 24.8169 89.5127 24.8937 89.5693 24.9785ZM88.967 24.3403C88.8377 24.3403 88.7205 24.3686 88.6113 24.4171C88.4982 24.4696 88.4052 24.5382 88.3244 24.6271C88.2435 24.716 88.1789 24.8169 88.1304 24.9381C88.0818 25.0593 88.0616 25.1845 88.0616 25.3218C88.0616 25.4592 88.0818 25.5884 88.1304 25.7096C88.1789 25.8308 88.2435 25.9318 88.3244 26.0206C88.4052 26.1095 88.5022 26.1782 88.6154 26.2266C88.7245 26.2791 88.8417 26.3034 88.9711 26.3034C89.0479 26.3034 89.1206 26.2953 89.1853 26.2751C89.25 26.2589 89.3065 26.2347 89.3591 26.2024C89.4116 26.1741 89.4601 26.1418 89.5006 26.1014C89.541 26.0651 89.5733 26.0247 89.5976 25.9843V26.2549H89.9088V23.2013H89.5693V24.619C89.5208 24.5544 89.444 24.4938 89.3429 24.4332C89.2419 24.3726 89.1166 24.3403 88.967 24.3403Z" fill="black"/>
<path d="M123.683 66.849H84.476C83.6947 66.849 83.0614 67.482 83.0614 68.2628V82.8039C83.0614 83.5847 83.6947 84.2177 84.476 84.2177H123.683C124.464 84.2177 125.097 83.5847 125.097 82.8039V68.2628C125.097 67.482 124.464 66.849 123.683 66.849Z" fill="white" stroke="#CCCCCC"/>
<path d="M89.3263 76.1392C88.5224 76.1392 87.7512 76.4583 87.1829 77.0266C86.6142 77.5946 86.2949 78.3652 86.2949 79.1686C86.2949 79.972 86.6142 80.7427 87.1829 81.3106C87.7512 81.8789 88.5224 82.198 89.3263 82.198C90.1303 82.198 90.9015 81.8789 91.4698 81.3106C92.0385 80.7427 92.3578 79.972 92.3578 79.1686C92.3578 78.3652 92.0385 77.5946 91.4698 77.0266C90.9015 76.4583 90.1303 76.1392 89.3263 76.1392Z" fill="#EDE7F6"/>
<path d="M89.3263 82.198C90.0082 82.198 90.6299 81.971 91.1298 81.5921C91.0389 80.441 89.8869 80.2289 89.8869 80.2289L89.3263 80.3501L88.7653 80.2289C88.7653 80.2289 87.6134 80.441 87.5224 81.5921C88.0228 81.971 88.6441 82.198 89.3263 82.198Z" fill="#311B92"/>
<path d="M89.3263 81.1377C89.7964 81.1377 90.1751 80.7896 90.2208 80.3351C90.0842 80.2746 89.9783 80.2443 89.9177 80.2289C89.9177 80.5621 89.6448 80.8199 89.3114 80.8199C88.9779 80.8199 88.7051 80.5468 88.7051 80.2289C88.6445 80.2443 88.5382 80.2746 88.402 80.3351C88.4775 80.7896 88.8567 81.1377 89.3263 81.1377Z" fill="#212121"/>
<path d="M90.5389 78.9416C90.5389 79.0628 90.433 79.1686 90.3118 79.1686C90.1901 79.1686 90.0842 79.0628 90.0842 78.9416C90.0842 78.8201 90.1901 78.7142 90.3118 78.7142C90.433 78.7142 90.5389 78.8201 90.5389 78.9416ZM88.5685 78.9416C88.5685 78.8201 88.4626 78.7142 88.3409 78.7142C88.2197 78.7142 88.1138 78.8201 88.1138 78.9416C88.1138 79.0628 88.2197 79.1686 88.3409 79.1686C88.4626 79.1686 88.5685 79.0628 88.5685 78.9416Z" fill="#EDBD28"/>
<path d="M89.3264 80.8348C88.7201 80.8348 88.7201 80.2289 88.7201 80.2289V79.623H89.9326V80.2289C89.9326 80.2289 89.9326 80.8348 89.3264 80.8348Z" fill="#EDB405"/>
<path d="M90.3874 78.366C90.3874 77.4721 88.2654 77.7904 88.2654 78.366V79.0325C88.2654 79.6081 88.735 80.0774 89.3264 80.0774C89.9177 80.0774 90.3874 79.6081 90.3874 79.0325V78.366Z" fill="#FFCA28"/>
<path d="M89.3263 77.1995C88.5835 77.1995 88.1138 77.851 88.1138 78.4416V78.7142L88.4169 79.0172V78.4113L89.8114 77.9569L90.2358 78.4113V79.0172L90.5389 78.7142V78.593C90.5389 78.1083 90.4177 77.5631 89.8114 77.4419L89.6901 77.1995H89.3263Z" fill="#19B9FD"/>
<path d="M89.6295 78.8657C89.6295 78.7748 89.6901 78.7142 89.7811 78.7142C89.872 78.7142 89.9326 78.7748 89.9326 78.8657C89.9326 78.9566 89.872 79.0172 89.7811 79.0172C89.6901 79.0172 89.6295 78.9566 89.6295 78.8657ZM88.7201 78.8657C88.7201 78.9566 88.7807 79.0172 88.8716 79.0172C88.9626 79.0172 89.0232 78.9566 89.0232 78.8657C89.0232 78.7748 88.9626 78.7142 88.8716 78.7142C88.7807 78.7142 88.7201 78.7748 88.7201 78.8657Z" fill="#784719"/>
<path d="M97.006 76.1392C96.2021 76.1392 95.4309 76.4583 94.8626 77.0266C94.2939 77.5946 93.9745 78.3652 93.9745 79.1686C93.9745 79.972 94.2939 80.7427 94.8626 81.3106C95.4309 81.8789 96.2021 82.198 97.006 82.198C97.8099 82.198 98.5811 81.8789 99.1494 81.3106C99.7181 80.7427 100.037 79.972 100.037 79.1686C100.037 78.3652 99.7181 77.5946 99.1494 77.0266C98.5811 76.4583 97.8099 76.1392 97.006 76.1392Z" fill="#EDE7F6"/>
<path d="M96.0966 78.2978H97.9154V80.3424H96.0966V78.2978Z" fill="#4E342E"/>
<path d="M97.006 82.198C97.6854 82.198 98.3103 81.9722 98.8156 81.595C98.7226 80.4773 97.6123 80.2289 97.6123 80.2289H96.3997C96.3997 80.2289 95.289 80.4733 95.196 81.595C95.7017 81.9722 96.3266 82.198 97.006 82.198Z" fill="#EDB405"/>
<path d="M97.006 80.7968C96.7877 80.7968 96.4757 80.2289 96.4757 80.2289V79.4716H97.5363V80.2289C97.5363 80.2289 97.2243 80.7968 97.006 80.7968Z" fill="#C16E14"/>
<path d="M98.067 79.0171C98.067 79.5818 97.571 80.0774 97.006 80.0774C96.4409 80.0774 95.945 79.5818 95.945 79.0171V78.1083C95.945 77.5436 98.067 77.2411 98.067 78.1083V79.0171ZM97.006 80.9863C97.4457 80.9863 97.5363 80.2289 97.5363 80.2289C97.5363 80.2289 97.2542 80.6833 97.006 80.6833C96.7578 80.6833 96.4757 80.2289 96.4757 80.2289C96.4757 80.2289 96.5662 80.9863 97.006 80.9863Z" fill="#E5852E"/>
<path d="M97.3091 78.8657C97.3091 78.7821 97.377 78.7142 97.4607 78.7142C97.5444 78.7142 97.6123 78.7821 97.6123 78.8657C97.6123 78.9493 97.5444 79.0172 97.4607 79.0172C97.377 79.0172 97.3091 78.9493 97.3091 78.8657ZM96.3997 78.8657C96.3997 78.9493 96.4676 79.0172 96.5513 79.0172C96.6349 79.0172 96.7028 78.9493 96.7028 78.8657C96.7028 78.7821 96.6349 78.7142 96.5513 78.7142C96.4676 78.7142 96.3997 78.7821 96.3997 78.8657Z" fill="#212121"/>
<path d="M97.006 77.1995C96.3152 77.1995 95.3387 77.5158 95.3387 79.7745L96.0966 80.3424V78.7142L97.4607 77.9569L97.9154 78.5628V80.3804L98.6733 79.6231C98.6733 79.1658 98.6345 77.4269 97.4607 77.4269L97.3091 77.1995H97.006Z" fill="black"/>
<path d="M104.686 76.1392C103.882 76.1392 103.11 76.4583 102.542 77.0266C101.974 77.5946 101.654 78.3652 101.654 79.1686C101.654 79.972 101.974 80.7427 102.542 81.3106C103.11 81.8789 103.882 82.198 104.686 82.198C105.49 82.198 106.261 81.8789 106.829 81.3106C107.398 80.7427 107.717 79.972 107.717 79.1686C107.717 78.3652 107.398 77.5946 106.829 77.0266C106.261 76.4583 105.49 76.1392 104.686 76.1392Z" fill="#EDE7F6"/>
<path d="M103.776 78.2978H105.595V80.3424H103.776V78.2978Z" fill="#4E342E"/>
<path d="M104.686 82.198C105.365 82.198 105.99 81.9722 106.495 81.595C106.402 80.4773 105.292 80.2289 105.292 80.2289H104.079C104.079 80.2289 102.969 80.4733 102.876 81.595C103.381 81.9722 104.006 82.198 104.686 82.198Z" fill="#50B86D"/>
<path d="M104.686 80.7968C104.467 80.7968 104.155 80.2289 104.155 80.2289V79.4716H105.216V80.2289C105.216 80.2289 104.904 80.7968 104.686 80.7968Z" fill="#C49D7A"/>
<path d="M105.747 79.0171C105.747 79.5818 105.251 80.0774 104.686 80.0774C104.121 80.0774 103.625 79.5818 103.625 79.0171V78.1083C103.625 77.5436 105.747 77.2411 105.747 78.1083V79.0171ZM104.686 80.9863C105.125 80.9863 105.216 80.2289 105.216 80.2289C105.216 80.2289 104.934 80.6833 104.686 80.6833C104.437 80.6833 104.155 80.2289 104.155 80.2289C104.155 80.2289 104.246 80.9863 104.686 80.9863Z" fill="#FFD4AD"/>
<path d="M104.989 78.8657C104.989 78.7821 105.057 78.7142 105.14 78.7142C105.224 78.7142 105.292 78.7821 105.292 78.8657C105.292 78.9493 105.224 79.0172 105.14 79.0172C105.057 79.0172 104.989 78.9493 104.989 78.8657ZM104.079 78.8657C104.079 78.9493 104.147 79.0172 104.231 79.0172C104.315 79.0172 104.382 78.9493 104.382 78.8657C104.382 78.7821 104.315 78.7142 104.231 78.7142C104.147 78.7142 104.079 78.7821 104.079 78.8657Z" fill="#494949"/>
<path d="M104.686 77.1995C103.995 77.1995 103.018 77.5158 103.018 79.7745L103.776 80.3424V78.7142L105.14 77.9569L105.595 78.5628V80.3804L106.353 79.6231C106.353 79.1658 106.314 77.4269 105.14 77.4269L104.989 77.1995H104.686Z" fill="#F6F890"/>
<path d="M112.365 76.1392C111.561 76.1392 110.79 76.4583 110.222 77.0266C109.653 77.5946 109.334 78.3652 109.334 79.1686C109.334 79.972 109.653 80.7427 110.222 81.3106C110.79 81.8789 111.561 82.198 112.365 82.198C113.169 82.198 113.94 81.8789 114.509 81.3106C115.077 80.7427 115.397 79.972 115.397 79.1686C115.397 78.3652 115.077 77.5946 114.509 77.0266C113.94 76.4583 113.169 76.1392 112.365 76.1392Z" fill="#EDE7F6"/>
<path d="M112.365 82.198C113.047 82.198 113.669 81.971 114.169 81.5921C114.078 80.441 112.926 80.2289 112.926 80.2289L112.365 80.3501L111.804 80.2289C111.804 80.2289 110.652 80.441 110.561 81.5921C111.062 81.971 111.683 82.198 112.365 82.198Z" fill="#FF5722"/>
<path d="M112.365 81.1377C112.835 81.1377 113.214 80.7896 113.26 80.3351C113.123 80.2746 113.017 80.2443 112.957 80.2289C112.957 80.5621 112.684 80.8199 112.35 80.8199C112.017 80.8199 111.744 80.5468 111.744 80.2289C111.683 80.2443 111.577 80.2746 111.441 80.3351C111.516 80.7896 111.896 81.1377 112.365 81.1377Z" fill="#EFC20B"/>
<path d="M113.578 78.9416C113.578 79.0628 113.472 79.1686 113.351 79.1686C113.229 79.1686 113.123 79.0628 113.123 78.9416C113.123 78.8201 113.229 78.7142 113.351 78.7142C113.472 78.7142 113.578 78.8201 113.578 78.9416ZM111.607 78.9416C111.607 78.8201 111.502 78.7142 111.38 78.7142C111.259 78.7142 111.153 78.8201 111.153 78.9416C111.153 79.0628 111.259 79.1686 111.38 79.1686C111.502 79.1686 111.607 79.0628 111.607 78.9416Z" fill="#B55D0D"/>
<path d="M112.365 80.8348C111.759 80.8348 111.759 80.2289 111.759 80.2289V79.623H112.972V80.2289C112.972 80.2289 112.972 80.8348 112.365 80.8348Z" fill="#5A2B00"/>
<path d="M113.426 78.366C113.426 77.4721 111.304 77.7904 111.304 78.366V79.0325C111.304 79.6081 111.774 80.0774 112.365 80.0774C112.957 80.0774 113.426 79.6081 113.426 79.0325V78.366Z" fill="#753800"/>
<path d="M112.365 77.1995C111.622 77.1995 111.153 77.851 111.153 78.4416V78.7142L111.456 79.0172V78.4113L112.85 77.9569L113.275 78.4113V79.0172L113.578 78.7142V78.593C113.578 78.1083 113.457 77.5631 112.85 77.4419L112.729 77.1995H112.365Z" fill="black"/>
<path d="M112.668 78.8657C112.668 78.7748 112.729 78.7142 112.82 78.7142C112.911 78.7142 112.972 78.7748 112.972 78.8657C112.972 78.9566 112.911 79.0172 112.82 79.0172C112.729 79.0172 112.668 78.9566 112.668 78.8657ZM111.759 78.8657C111.759 78.9566 111.82 79.0172 111.911 79.0172C112.001 79.0172 112.062 78.9566 112.062 78.8657C112.062 78.7748 112.001 78.7142 111.911 78.7142C111.82 78.7142 111.759 78.7748 111.759 78.8657Z" fill="#212121"/>
<path d="M86.4808 69.8784V72.7059H86.8204V69.8784H86.4808ZM88.3619 70.7913C88.2164 70.7913 88.0952 70.8236 87.9982 70.8882C87.9012 70.9528 87.8325 71.0256 87.7839 71.1023V70.8398H87.4687V72.7059H87.8082V71.4214C87.8284 71.3891 87.8527 71.3527 87.885 71.3123C87.9133 71.276 87.9456 71.2437 87.986 71.2114C88.0265 71.179 88.0709 71.1548 88.1194 71.1346C88.1679 71.1185 88.2245 71.1063 88.2892 71.1063C88.3458 71.1063 88.3983 71.1185 88.4509 71.1346C88.5034 71.1508 88.5479 71.179 88.5883 71.2154C88.6287 71.2558 88.661 71.3002 88.6853 71.3568C88.7095 71.4133 88.7217 71.482 88.7217 71.5628V72.7059H89.0612V71.5062C89.0612 71.3931 89.041 71.2881 89.0046 71.1992C88.9642 71.1104 88.9157 71.0377 88.851 70.9771C88.7863 70.9165 88.7095 70.8721 88.6247 70.8398C88.5398 70.8074 88.4509 70.7913 88.3619 70.7913ZM89.7176 70.8398H89.3457L90.2794 72.7867L91.2131 70.8398H90.8655L90.2915 72.104L89.7176 70.8398ZM92.8772 71.6112H91.705C91.709 71.5628 91.7252 71.5103 91.7495 71.4497C91.7737 71.3931 91.8101 71.3366 91.8586 71.2881C91.9071 71.2396 91.9637 71.1952 92.0364 71.1588C92.1092 71.1265 92.1941 71.1063 92.2951 71.1063C92.3921 71.1063 92.473 71.1225 92.5457 71.1548C92.6185 71.1871 92.6751 71.2316 92.7236 71.28C92.7721 71.3325 92.8085 71.3891 92.8327 71.4456C92.857 71.5062 92.8731 71.5628 92.8772 71.6112ZM92.2951 70.7913C92.1537 70.7913 92.0243 70.8196 91.9111 70.868C91.798 70.9205 91.701 70.9892 91.6201 71.0781C91.5393 71.1669 91.4746 71.2719 91.4302 71.3891C91.3857 71.5103 91.3655 71.6355 91.3655 71.7647C91.3655 71.9061 91.3897 72.0354 91.4382 72.1565C91.4867 72.2777 91.5514 72.3827 91.6363 72.4716C91.7212 72.5605 91.8222 72.6332 91.9435 72.6816C92.0607 72.7301 92.19 72.7543 92.3275 72.7543C92.4164 72.7543 92.5013 72.7463 92.5821 72.7261C92.6589 72.7059 92.7317 72.6776 92.7963 72.6412C92.861 72.6089 92.9216 72.5685 92.9742 72.5241C93.0267 72.4797 93.0752 72.4352 93.1156 72.3868L92.9014 72.1646C92.8448 72.2373 92.7721 72.2979 92.6751 72.3545C92.5781 72.411 92.4689 72.4393 92.3396 72.4393C92.2507 72.4393 92.1658 72.4272 92.093 72.3948C92.0162 72.3666 91.9516 72.3262 91.895 72.2737C91.8384 72.2252 91.7899 72.1646 91.7576 72.1C91.7212 72.0354 91.701 71.9667 91.6969 71.894H93.2046C93.2046 71.8738 93.2086 71.8536 93.2086 71.8374V71.7849C93.2086 71.6355 93.1843 71.4981 93.1399 71.377C93.0914 71.2558 93.0308 71.1508 92.9499 71.0619C92.8691 70.9771 92.7721 70.9125 92.6589 70.864C92.5457 70.8155 92.4245 70.7913 92.2951 70.7913ZM93.7078 72.1444L93.4733 72.3625C93.5057 72.411 93.5501 72.4595 93.6067 72.5039C93.6593 72.5524 93.7199 72.5928 93.7886 72.6291C93.8533 72.6695 93.9301 72.6978 94.0109 72.722C94.0918 72.7463 94.1807 72.7543 94.2777 72.7543C94.3666 72.7543 94.4555 72.7463 94.5445 72.722C94.6334 72.6978 94.7102 72.6655 94.7789 72.617C94.8476 72.5726 94.9042 72.516 94.9486 72.4433C94.9891 72.3706 95.0133 72.2858 95.0133 72.1888C95.0133 72.0919 94.9891 72.0111 94.9486 71.9465C94.9042 71.8819 94.8516 71.8253 94.787 71.7809C94.7223 71.7405 94.6495 71.7041 94.5727 71.6799C94.4959 71.6557 94.4232 71.6355 94.3545 71.6193C94.2979 71.6072 94.2413 71.5951 94.1888 71.5789C94.1322 71.5628 94.0837 71.5466 94.0433 71.5264C93.9988 71.5062 93.9624 71.482 93.9382 71.4497C93.9139 71.4214 93.9018 71.385 93.9018 71.3406C93.9018 71.28 93.9301 71.2235 93.9907 71.175C94.0473 71.1265 94.1362 71.0983 94.2494 71.0983C94.3626 71.0983 94.4555 71.1225 94.5364 71.1669C94.6132 71.2114 94.6778 71.2558 94.7263 71.3043L94.9486 71.074C94.8799 71.0054 94.787 70.9407 94.6698 70.8801C94.5525 70.8236 94.4151 70.7913 94.2575 70.7913C94.1524 70.7913 94.0554 70.8074 93.9745 70.8357C93.8897 70.868 93.8169 70.9084 93.7563 70.9569C93.6957 71.0094 93.6512 71.07 93.6189 71.1387C93.5865 71.2073 93.5704 71.28 93.5704 71.3527C93.5704 71.4497 93.5946 71.5345 93.6431 71.5991C93.6916 71.6678 93.7482 71.7243 93.8209 71.7647C93.8897 71.8051 93.9624 71.8374 94.0433 71.8617C94.1201 71.8859 94.1888 71.9061 94.2534 71.9182C94.3019 71.9303 94.3504 71.9425 94.3989 71.9546C94.4474 71.9707 94.4959 71.9869 94.5364 72.0071C94.5768 72.0313 94.6132 72.0556 94.6374 72.0879C94.6617 72.1202 94.6778 72.1606 94.6778 72.201C94.6778 72.2494 94.6617 72.2858 94.6374 72.3181C94.6132 72.3504 94.5808 72.3747 94.5404 72.3948C94.5 72.415 94.4596 72.4272 94.4111 72.4352C94.3626 72.4433 94.3181 72.4474 94.2777 72.4474C94.2049 72.4474 94.1403 72.4393 94.0837 72.4191C94.0271 72.4029 93.9745 72.3787 93.926 72.3464C93.8775 72.3181 93.8331 72.2858 93.7967 72.2494C93.7603 72.2171 93.732 72.1808 93.7078 72.1444ZM95.2724 70.8398V71.1467H95.6362V72.1687C95.6362 72.2737 95.6523 72.3625 95.6847 72.4352C95.717 72.5079 95.7615 72.5685 95.8181 72.617C95.8706 72.6655 95.9312 72.6978 95.9999 72.722C96.0646 72.7463 96.1333 72.7543 96.2061 72.7543C96.2546 72.7543 96.3112 72.7503 96.3718 72.7341C96.4324 72.718 96.5052 72.6897 96.586 72.6412L96.4607 72.3625C96.4243 72.3868 96.388 72.4029 96.3556 72.4191C96.3193 72.4352 96.2788 72.4393 96.2344 72.4393C96.1535 72.4393 96.0889 72.415 96.0444 72.3666C95.9959 72.3181 95.9757 72.2454 95.9757 72.1525V71.1467H96.5577V70.8398H95.9757V70.2702H95.6362V70.8398H95.2724ZM97.7861 72.4393C97.6891 72.4393 97.6042 72.4231 97.5274 72.3868C97.4506 72.3545 97.3859 72.306 97.3334 72.2454C97.2768 72.1848 97.2364 72.1121 97.2081 72.0313C97.1757 71.9505 97.1636 71.8657 97.1636 71.7728C97.1636 71.6839 97.1757 71.5951 97.2081 71.5143C97.2364 71.4335 97.2768 71.3648 97.3334 71.3043C97.3859 71.2437 97.4506 71.1952 97.5274 71.1588C97.6042 71.1265 97.6891 71.1063 97.7861 71.1063C97.879 71.1063 97.9639 71.1265 98.0407 71.1588C98.1175 71.1952 98.1822 71.2437 98.2388 71.3043C98.2913 71.3648 98.3317 71.4335 98.3641 71.5143C98.3924 71.5951 98.4085 71.6839 98.4085 71.7728C98.4085 71.8657 98.3924 71.9505 98.3641 72.0313C98.3317 72.1121 98.2913 72.1848 98.2388 72.2454C98.1822 72.306 98.1175 72.3545 98.0407 72.3868C97.9639 72.4231 97.879 72.4393 97.7861 72.4393ZM97.7861 70.7913C97.6486 70.7913 97.5193 70.8196 97.4021 70.868C97.2849 70.9205 97.1838 70.9892 97.0989 71.0781C97.01 71.1669 96.9453 71.2679 96.8968 71.3891C96.8483 71.5103 96.8241 71.6355 96.8241 71.7728C96.8241 71.9101 96.8483 72.0394 96.8968 72.1606C96.9453 72.2817 97.01 72.3827 97.0989 72.4716C97.1838 72.5605 97.2849 72.6291 97.4021 72.6776C97.5193 72.7301 97.6486 72.7543 97.7861 72.7543C97.9235 72.7543 98.0488 72.7301 98.166 72.6776C98.2832 72.6291 98.3843 72.5605 98.4732 72.4716C98.5581 72.3827 98.6268 72.2817 98.6753 72.1606C98.7238 72.0394 98.748 71.9101 98.748 71.7728C98.748 71.6355 98.7238 71.5103 98.6753 71.3891C98.6268 71.2679 98.5581 71.1669 98.4732 71.0781C98.3843 70.9892 98.2832 70.9205 98.166 70.868C98.0488 70.8196 97.9235 70.7913 97.7861 70.7913ZM99.9772 70.7913C99.9125 70.7913 99.8519 70.8034 99.7993 70.8196C99.7428 70.8398 99.6943 70.864 99.6538 70.8963C99.6094 70.9286 99.569 70.9609 99.5366 71.0013C99.5043 71.0417 99.476 71.0861 99.4517 71.1265V70.8398H99.1365V72.7059H99.476V71.4214C99.4922 71.3891 99.5124 71.3527 99.5366 71.3123C99.5609 71.276 99.5932 71.2437 99.6296 71.2114C99.666 71.1831 99.7064 71.1588 99.7549 71.1387C99.7993 71.1185 99.8519 71.1063 99.9125 71.1063C99.9408 71.1063 99.9731 71.1104 100.014 71.1185C100.054 71.1265 100.086 71.1346 100.119 71.1467L100.244 70.8398C100.199 70.8236 100.155 70.8115 100.107 70.8034C100.058 70.7953 100.018 70.7913 99.9772 70.7913ZM100.623 72.1444L100.389 72.3625C100.421 72.411 100.465 72.4595 100.522 72.5039C100.575 72.5524 100.635 72.5928 100.704 72.6291C100.769 72.6695 100.845 72.6978 100.926 72.722C101.007 72.7463 101.096 72.7543 101.193 72.7543C101.282 72.7543 101.371 72.7463 101.46 72.722C101.549 72.6978 101.625 72.6655 101.694 72.617C101.763 72.5726 101.819 72.516 101.864 72.4433C101.904 72.3706 101.929 72.2858 101.929 72.1888C101.929 72.0919 101.904 72.0111 101.864 71.9465C101.819 71.8819 101.767 71.8253 101.702 71.7809C101.638 71.7405 101.565 71.7041 101.488 71.6799C101.411 71.6557 101.339 71.6355 101.27 71.6193C101.213 71.6072 101.157 71.5951 101.104 71.5789C101.047 71.5628 100.999 71.5466 100.959 71.5264C100.914 71.5062 100.878 71.482 100.853 71.4497C100.829 71.4214 100.817 71.385 100.817 71.3406C100.817 71.28 100.845 71.2235 100.906 71.175C100.963 71.1265 101.052 71.0983 101.165 71.0983C101.278 71.0983 101.371 71.1225 101.452 71.1669C101.528 71.2114 101.593 71.2558 101.642 71.3043L101.864 71.074C101.795 71.0054 101.702 70.9407 101.585 70.8801C101.468 70.8236 101.33 70.7913 101.173 70.7913C101.068 70.7913 100.971 70.8074 100.89 70.8357C100.805 70.868 100.732 70.9084 100.672 70.9569C100.611 71.0094 100.567 71.07 100.534 71.1387C100.502 71.2073 100.486 71.28 100.486 71.3527C100.486 71.4497 100.51 71.5345 100.558 71.5991C100.607 71.6678 100.664 71.7243 100.736 71.7647C100.805 71.8051 100.878 71.8374 100.959 71.8617C101.035 71.8859 101.104 71.9061 101.169 71.9182C101.217 71.9303 101.266 71.9425 101.314 71.9546C101.363 71.9707 101.411 71.9869 101.452 72.0071C101.492 72.0313 101.528 72.0556 101.553 72.0879C101.577 72.1202 101.593 72.1606 101.593 72.201C101.593 72.2494 101.577 72.2858 101.553 72.3181C101.528 72.3504 101.496 72.3747 101.456 72.3948C101.415 72.415 101.375 72.4272 101.326 72.4352C101.278 72.4433 101.233 72.4474 101.193 72.4474C101.12 72.4474 101.056 72.4393 100.999 72.4191C100.942 72.4029 100.89 72.3787 100.841 72.3464C100.793 72.3181 100.748 72.2858 100.712 72.2494C100.676 72.2171 100.647 72.1808 100.623 72.1444Z" fill="black"/>
<path d="M61.9424 58.4677C61.9424 58.4677 61.4371 60.4873 59.4162 60.4873C57.3952 60.4873 56.89 58.4677 56.89 58.4677C56.89 58.4677 51.3323 59.4706 51.3323 65.0314H67.5C67.5 59.49 61.9424 58.4677 61.9424 58.4677Z" fill="#333333"/>
<path d="M59.4162 61.4971C56.89 61.4971 56.89 58.4676 56.89 58.4676V55.4382H61.9424V58.4676C61.9424 58.4676 61.9424 61.4971 59.4162 61.4971Z" fill="#FF9800"/>
<path d="M64.9738 52.4088C64.9738 52.9666 64.5215 53.4186 63.9633 53.4186C63.4051 53.4186 62.9528 52.9666 62.9528 52.4088C62.9528 51.851 63.4051 51.399 63.9633 51.399C64.5215 51.399 64.9738 51.851 64.9738 52.4088ZM55.8795 52.4088C55.8795 52.9666 55.4272 53.4186 54.869 53.4186C54.3108 53.4186 53.8585 52.9666 53.8585 52.4088C53.8585 51.851 54.3108 51.399 54.869 51.399C55.4272 51.399 55.8795 51.851 55.8795 52.4088Z" fill="#FFA726"/>
<path d="M63.9633 49.3794C63.9633 45.5244 54.869 46.8694 54.869 49.3794V52.9137C54.869 55.4237 56.9045 57.4579 59.4162 57.4579C61.9278 57.4579 63.9633 55.4237 63.9633 52.9137V49.3794Z" fill="#FFB74D"/>
<path d="M59.4162 44.8353C56.3467 44.8353 54.3638 47.3218 54.3638 50.3892V51.5424L55.3742 52.4088V49.8843L61.4371 47.8647L63.4581 49.8843V52.4088L64.4686 51.5299V50.3892C64.4686 48.3571 63.9439 46.3423 61.4371 45.8451L60.9319 44.8353H59.4162Z" fill="#424242"/>
<path d="M60.9319 52.4088C60.9319 52.6875 61.1582 52.9137 61.4371 52.9137C61.716 52.9137 61.9424 52.6875 61.9424 52.4088C61.9424 52.1301 61.716 51.9039 61.4371 51.9039C61.1582 51.9039 60.9319 52.1301 60.9319 52.4088ZM56.89 52.4088C56.89 52.6875 57.1163 52.9137 57.3952 52.9137C57.6741 52.9137 57.9004 52.6875 57.9004 52.4088C57.9004 52.1301 57.6741 51.9039 57.3952 51.9039C57.1163 51.9039 56.89 52.1301 56.89 52.4088Z" fill="#784719"/>
<path d="M59.4162 61.4971C61.9424 61.4971 62.8239 59.513 62.9278 58.7565C62.3433 58.5424 61.9424 58.4677 61.9424 58.4677C61.9424 58.4677 61.4371 60.4873 59.4162 60.4873C57.3952 60.4873 56.89 58.4677 56.89 58.4677C56.89 58.4677 56.4886 58.5416 55.9037 58.7532C56.0068 59.5082 56.89 61.4971 59.4162 61.4971Z" fill="#01579B"/>
<path d="M51.0656 64.7757L34.8977 79.7208" stroke="#CCCCCC"/>
<path d="M82.7267 78.1096L67.3674 64.7802" stroke="#CCCCCC"/>
<path d="M54.8298 47.4042L43.1082 36.0943" stroke="#CCCCCC"/>
<path d="M64.811 47.4041L76.5326 36.0943" stroke="#CCCCCC"/>
</g>
<defs>
<clipPath id="clip0">
<rect width="135" height="103" fill="white"/>
</clipPath>
</defs>
</svg>
