<svg width="16" height="16" viewBox="0 0 16 16" fill="none" xmlns="http://www.w3.org/2000/svg">
<path d="M13.3333 2.33334H2.66666C1.93333 2.33334 1.33333 2.93334 1.33333 3.66667V12.3333C1.33333 13.0667 1.93333 13.6667 2.66666 13.6667H4.33333V13.2333C4.13333 13.1333 3.99999 12.9 3.99999 12.6667C3.99999 12.3 4.29999 12 4.66666 12C5.03333 12 5.33333 12.3 5.33333 12.6667C5.33333 12.9 5.19999 13.1333 4.99999 13.2333V13.6667H11V13.2333C10.8 13.1333 10.6667 12.9 10.6667 12.6667C10.6667 12.3 10.9667 12 11.3333 12C11.7 12 12 12.3 12 12.6667C12 12.9 11.8667 13.1333 11.6667 13.2333V13.6667H13.3333C14.0667 13.6667 14.6667 13.0667 14.6667 12.3333V3.66667C14.6667 2.93334 14.0667 2.33334 13.3333 2.33334Z" fill="#666666"/>
<path d="M8 7.33333C8.73638 7.33333 9.33334 6.73638 9.33334 6C9.33334 5.26362 8.73638 4.66666 8 4.66666C7.26363 4.66666 6.66667 5.26362 6.66667 6C6.66667 6.73638 7.26363 7.33333 8 7.33333Z" fill="white"/>
<path d="M10.3333 9.33333C10.3333 9.33333 9.7 8 8 8C6.30001 8 5.66667 9.33333 5.66667 9.33333V10H10.3333V9.33333Z" fill="white"/>
</svg>
