<svg width="16" height="16" viewBox="0 0 16 16" fill="none" xmlns="http://www.w3.org/2000/svg">
<path d="M14.6667 13.3333H12V15.3333L8.66668 12.3333L12 9.33333V11.3333H14.6667V13.3333ZM13.3333 2.66667H2.66668C2.31305 2.66667 1.97392 2.80714 1.72387 3.05719C1.47382 3.30724 1.33334 3.64638 1.33334 4V12C1.33334 12.3536 1.47382 12.6928 1.72387 12.9428C1.97392 13.1929 2.31305 13.3333 2.66668 13.3333H7.56668C7.41111 12.9061 7.33212 12.4547 7.33334 12C7.33429 11.1411 7.61169 10.3053 8.12449 9.61626C8.6373 8.92723 9.35827 8.42156 10.1808 8.17407C11.0032 7.92658 11.8835 7.9504 12.6914 8.24202C13.4993 8.53365 14.1919 9.07757 14.6667 9.79333V4C14.6667 3.64638 14.5262 3.30724 14.2762 3.05719C14.0261 2.80714 13.687 2.66667 13.3333 2.66667ZM13.3333 5.33333L8.00001 8.66667L2.66668 5.33333V4L8.00001 7.33333L13.3333 4V5.33333Z" fill="#666666"/>
</svg>
