<svg width="14" height="14" viewBox="0 0 14 14" fill="none" xmlns="http://www.w3.org/2000/svg">
<path d="M5.13741 9.75258H5.06876L5.03517 9.81185L3.36583 12.731L3.26508 12.907H3.46806H11.2545H11.3231L11.3567 12.8475L13.026 9.92865L13.1273 9.75258H12.9238H5.13741Z" fill="#555555"/>
<path d="M9.4594 9.01518L9.49348 9.07396H9.56213L12.9238 9.05964L13.1273 9.05865L13.0255 8.88307L9.1322 2.13977L9.09862 2.08075L9.02997 2.081L5.66733 2.09458L5.46434 2.09557L5.56608 2.27139L9.4594 9.01518Z" fill="#555555"/>
<path d="M6.66222 5.5866L6.62789 5.52709L4.93435 2.62253L4.83212 2.4472L4.73062 2.62303L0.837304 9.36633L0.802979 9.4251L0.837551 9.48437L2.53109 12.3894L2.63308 12.565L2.73458 12.3889L6.62789 5.64538L6.66222 5.5866Z" fill="#555555"/>
</svg>
