<svg width="14" height="14" viewBox="0 0 14 14" fill="none" xmlns="http://www.w3.org/2000/svg">
<path d="M7 1.16667C3.78525 1.16667 1.16667 3.78525 1.16667 7C1.16667 10.2148 3.78525 12.8333 7 12.8333C10.2148 12.8333 12.8333 10.2148 12.8333 7C12.8333 3.78525 10.2148 1.16667 7 1.16667ZM7 2.33333C9.58424 2.33333 11.6667 4.41576 11.6667 7C11.6667 9.58424 9.58424 11.6667 7 11.6667C4.41576 11.6667 2.33333 9.58424 2.33333 7C2.33333 4.41576 4.41576 2.33333 7 2.33333ZM7 3.5C5.71083 3.5 4.66667 4.54417 4.66667 5.83333H5.83333C5.83333 5.19167 6.35833 4.66667 7 4.66667C7.64167 4.66667 8.16667 5.19167 8.16667 5.83333C8.16667 7 6.41667 7.21408 6.41667 8.75H7.58333C7.58333 7.78692 9.33333 7.29167 9.33333 5.83333C9.33333 4.54417 8.28917 3.5 7 3.5ZM6.41667 9.33333V10.5H7.58333V9.33333H6.41667Z" fill="#666666"/>
</svg>
