<svg width="21" height="16" viewBox="0 0 21 16" fill="none" xmlns="http://www.w3.org/2000/svg">
<path d="M15.2892 8.85714V13.1429C15.2892 13.2976 15.2326 13.4315 15.1195 13.5446C15.0065 13.6577 14.8725 13.7143 14.7178 13.7143H11.2892V10.2857H9.00348V13.7143H5.57491C5.42014 13.7143 5.28622 13.6577 5.17312 13.5446C5.06002 13.4315 5.00348 13.2976 5.00348 13.1429V8.85714C5.00348 8.85119 5.00497 8.84226 5.00794 8.83035C5.01092 8.81845 5.01241 8.80952 5.01241 8.80357L10.1463 4.57143L15.2803 8.80357C15.2862 8.81547 15.2892 8.83333 15.2892 8.85714ZM17.2803 8.24107L16.7267 8.90178C16.6791 8.95535 16.6166 8.98809 16.5392 9H16.5124C16.435 9 16.3725 8.97916 16.3249 8.9375L10.1463 3.78571L3.96776 8.9375C3.89633 8.98512 3.82491 9.00595 3.75348 9C3.6761 8.98809 3.6136 8.95535 3.56598 8.90178L3.01241 8.24107C2.96479 8.18154 2.94395 8.1116 2.94991 8.03125C2.95586 7.95089 2.9886 7.8869 3.04812 7.83928L9.46776 2.49107C9.65824 2.33631 9.88443 2.25893 10.1463 2.25893C10.4082 2.25893 10.6344 2.33631 10.8249 2.49107L13.0035 4.3125V2.57143C13.0035 2.48809 13.0303 2.41964 13.0838 2.36607C13.1374 2.3125 13.2059 2.28571 13.2892 2.28571H15.0035C15.0868 2.28571 15.1553 2.3125 15.2088 2.36607C15.2624 2.41964 15.2892 2.48809 15.2892 2.57143V6.21428L17.2445 7.83928C17.3041 7.8869 17.3368 7.95089 17.3428 8.03125C17.3487 8.1116 17.3279 8.18154 17.2803 8.24107Z" fill="#666666"/>
</svg>
