<svg width="14" height="14" viewBox="0 0 14 14" fill="none" xmlns="http://www.w3.org/2000/svg">
<path d="M11.0833 5.25C11.0833 4.71377 10.9777 4.18279 10.7725 3.68738C10.5673 3.19196 10.2665 2.74182 9.88734 2.36265C9.50817 1.98347 9.05803 1.6827 8.56261 1.47749C8.0672 1.27229 7.53622 1.16667 6.99999 1.16667C6.46376 1.16667 5.93278 1.27229 5.43737 1.47749C4.94195 1.6827 4.49181 1.98347 4.11264 2.36265C3.73346 2.74182 3.43269 3.19196 3.22748 3.68738C3.02227 4.18279 2.91666 4.71377 2.91666 5.25C2.91666 6.05908 3.15582 6.81158 3.56124 7.44625H3.55657C4.93324 9.60167 6.99999 12.8333 6.99999 12.8333L10.4434 7.44625H10.4393C10.8596 6.7908 11.0831 6.0286 11.0833 5.25ZM6.99999 7C6.53586 7 6.09074 6.81563 5.76255 6.48744C5.43436 6.15925 5.24999 5.71413 5.24999 5.25C5.24999 4.78587 5.43436 4.34075 5.76255 4.01256C6.09074 3.68437 6.53586 3.5 6.99999 3.5C7.46412 3.5 7.90924 3.68437 8.23743 4.01256C8.56562 4.34075 8.74999 4.78587 8.74999 5.25C8.74999 5.71413 8.56562 6.15925 8.23743 6.48744C7.90924 6.81563 7.46412 7 6.99999 7Z" fill="#666666"/>
</svg>
