<svg width="18" height="18" viewBox="0 0 18 18" fill="none" xmlns="http://www.w3.org/2000/svg">
<path d="M14.9999 16.875H2.99991V1.125H11.2499L14.9999 4.875V16.875Z" fill="#FF5722"/>
<path d="M14.4374 5.25H10.8749V1.6875L14.4374 5.25Z" fill="#FBE9E7"/>
<path d="M5.92883 11.0625V12.375H5.17508V8.64263H6.4467C6.8157 8.64263 7.11045 8.75738 7.32983 8.98613C7.5492 9.21488 7.65908 9.51226 7.65908 9.87826C7.65908 10.2443 7.55033 10.5326 7.33358 10.7449C7.11683 10.9571 6.8157 11.0625 6.43095 11.0625H5.92883ZM5.92883 10.4344H6.4467C6.59033 10.4344 6.70133 10.3875 6.78008 10.2934C6.85883 10.1993 6.89783 10.0628 6.89783 9.88313C6.89783 9.69676 6.8577 9.54863 6.77745 9.43801C6.6972 9.32813 6.58958 9.27226 6.45458 9.27038H5.92883V10.4344ZM8.16158 12.375V8.64263H9.14858C9.58433 8.64263 9.93195 8.78101 10.1903 9.05776C10.4495 9.33451 10.5815 9.71401 10.5867 10.1959V10.8008C10.5867 11.2913 10.457 11.6764 10.1986 11.9554C9.93908 12.2355 9.58245 12.375 9.12795 12.375H8.16158ZM8.91495 9.27076V11.7495H9.1407C9.39195 11.7495 9.56895 11.6831 9.67133 11.5508C9.77371 11.4184 9.8277 11.19 9.83295 10.8653V10.2169C9.83295 9.86813 9.7842 9.62513 9.6867 9.48788C9.5892 9.35026 9.42345 9.27788 9.18945 9.27113H8.91495V9.27076ZM13.0527 10.8521H11.8812V12.375H11.1275V8.64263H13.1937V9.27076H11.8812V10.227H13.0527V10.8521Z" fill="#FFEBEE"/>
</svg>
