<svg width="14" height="14" viewBox="0 0 14 14" fill="none" xmlns="http://www.w3.org/2000/svg">
<path d="M6.52167 0.944977V3.62367C5.01902 3.829 3.82899 5.019 3.62366 6.52165H0.944997C1.17366 3.54898 3.549 1.17367 6.52167 0.944977Z" fill="#B0ABAB"/>
<path d="M7.45435 3.62207C9.10936 3.85048 10.3857 5.27082 10.3857 6.98829C10.3857 7.63585 10.2002 8.23986 9.88424 8.75581L11.8253 10.6334C12.5936 9.61673 13.055 8.35627 13.055 6.98829C13.055 3.79961 10.5826 1.18458 7.45435 0.945206V3.62207Z" fill="#666666"/>
<path d="M9.29051 9.47972C8.68487 10.0399 7.87775 10.3857 6.98834 10.3857C5.27083 10.3857 3.85053 9.10543 3.62212 7.45335H0.945225C1.1844 10.5781 3.79951 13.055 6.98834 13.055C8.62873 13.055 10.1163 12.3972 11.2092 11.3357L9.29051 9.47972Z" fill="#666666"/>
</svg>
