<svg width="179" height="137" viewBox="0 0 179 137" fill="none" xmlns="http://www.w3.org/2000/svg">
<g clip-path="url(#clip0)">
<path d="M121.877 20.2739C125.598 16.5416 125.598 10.4903 121.877 6.75798C118.157 3.02565 112.125 3.02565 108.405 6.75798L33.4097 81.9969C29.6895 85.7292 29.6894 91.7805 33.4097 95.5129C37.13 99.2452 43.1617 99.2452 46.8819 95.5129L121.877 20.2739Z" fill="#BFEBFE"/>
<path d="M121.877 45.7599C125.598 42.0275 125.598 35.9762 121.877 32.2439C118.157 28.5116 112.125 28.5116 108.405 32.2439L24.1963 116.726C20.4761 120.458 20.4761 126.51 24.1964 130.242C27.9166 133.974 33.9483 133.974 37.6686 130.242L121.877 45.7599Z" fill="#BFEBFE"/>
<path d="M146.968 45.7599C150.689 42.0276 150.689 35.9762 146.968 32.2439C143.248 28.5116 137.216 28.5116 133.496 32.2439L49.2873 116.726C45.567 120.458 45.567 126.51 49.2873 130.242C53.0075 133.974 59.0392 133.974 62.7595 130.242L146.968 45.7599Z" fill="#BFEBFE"/>
<path d="M172.061 45.7599C175.781 42.0275 175.781 35.9762 172.061 32.2439C168.341 28.5116 162.309 28.5116 158.589 32.2439L74.38 116.726C70.6598 120.458 70.6598 126.51 74.38 130.242C78.1003 133.974 84.132 133.974 87.8522 130.242L172.061 45.7599Z" fill="#BFEBFE"/>
<path d="M95.2036 20.2739C98.9239 16.5416 98.9239 10.4903 95.2036 6.75798C91.4834 3.02565 85.4517 3.02565 81.7314 6.75798L6.73593 81.9969C3.01568 85.7292 3.01568 91.7805 6.73593 95.5129C10.4562 99.2452 16.4879 99.2452 20.2082 95.5129L95.2036 20.2739Z" fill="#BFEBFE"/>
<path d="M45.8665 100.101H108.865V27.1752C108.865 24.5013 106.684 22.3135 104.019 22.3135H50.7124C48.0472 22.3135 45.8665 24.5013 45.8665 27.1752V100.101Z" fill="#DFDEDE"/>
<path d="M108.865 100.101H45.8665V104.963H108.865V100.101Z" fill="#6DA544"/>
<path d="M82.2117 85.5163H72.5194V95.2395H82.2117V85.5163ZM65.2506 85.5163H55.5583V95.2395H65.2506V85.5163ZM82.2117 51.4838H72.5194V61.2076H82.2117V51.4838ZM65.2506 51.4838H55.5583V61.2076H65.2506V51.4838ZM82.2117 68.5H72.5194V78.2233H82.2117V68.5ZM65.2506 68.5H55.5583V78.2233H65.2506V68.5ZM82.2117 34.4678H72.5194V44.1913H82.2117V34.4678ZM99.1725 34.4678H89.4806V44.1913H99.1725V34.4678ZM65.2506 34.4678H55.5583V44.1913H65.2506V34.4678Z" fill="#333333"/>
<path d="M128.249 51.4838H91.9036C89.2384 51.4838 87.0577 53.6716 87.0577 56.3454V109.825H133.095V56.3454C133.095 53.6716 130.914 51.4838 128.249 51.4838Z" fill="#CCCCCC"/>
<path d="M87.0577 109.825H133.095V114.687H87.0577V109.825Z" fill="#6DA544"/>
<path d="M106.442 61.2076H96.7495V70.9308H106.442V61.2076ZM106.442 78.2233H96.7495V87.9471H106.442V78.2233ZM106.442 95.2395H96.7495V104.963H106.442V95.2395ZM113.711 78.2233H123.403V87.9471H113.711V78.2233ZM113.711 95.2395H123.403V104.963H113.711V95.2395ZM123.403 61.2076H113.711V70.9308H123.403V61.2076Z" fill="#333333"/>
</g>
<defs>
<clipPath id="clip0">
<rect width="179" height="137" fill="white"/>
</clipPath>
</defs>
</svg>
