<svg width="16" height="16" viewBox="0 0 16 16" fill="none" xmlns="http://www.w3.org/2000/svg">
<path d="M2.66667 2.86811C1.984 2.86811 1.42696 3.38319 1.34896 4.04519L1.33532 5.20136L2.99999 5.49995V4.20135L7.99999 7.49995L13 4.20135V5.49995L14.651 4.04518C14.573 3.38318 14.016 2.86811 13.3333 2.86811H2.66667ZM1.33532 5.20136L1.33334 12.2014C1.33334 12.9381 1.93 13.5348 2.66667 13.5348H8.11459L14.6667 6.98269L14.651 4.04518L13 5.49995L7.99999 8.86811L2.99999 5.49995L1.33532 5.20136ZM14.8047 8.86811C14.7194 8.86811 14.634 8.90077 14.569 8.96577L13.9023 9.63243L15.2357 10.9658L15.9023 10.2991C16.0323 10.1691 16.0323 9.95775 15.9023 9.82775L15.0404 8.96577C14.975 8.90077 14.8899 8.86811 14.8047 8.86811ZM13.431 10.1038L10 13.5348V14.8681H11.3333L14.7643 11.4371L13.431 10.1038Z" fill="#666666"/>
</svg>
