<svg width="181" height="138" viewBox="0 0 181 138" fill="none" xmlns="http://www.w3.org/2000/svg">
<g clip-path="url(#clip0)">
<path d="M123.239 20.4219C127.001 16.6624 127.001 10.5669 123.239 6.80731C119.477 3.04773 113.378 3.04774 109.616 6.80731L33.783 82.5954C30.0212 86.355 30.0212 92.4505 33.783 96.21C37.5448 99.9696 43.6439 99.9696 47.4057 96.21L123.239 20.4219Z" fill="#BFEBFE"/>
<path d="M123.239 46.0939C127.001 42.3343 127.001 36.2388 123.239 32.4793C119.477 28.7197 113.378 28.7197 109.616 32.4793L24.4667 117.578C20.7049 121.338 20.7049 127.433 24.4667 131.193C28.2285 134.952 34.3276 134.952 38.0894 131.193L123.239 46.0939Z" fill="#BFEBFE"/>
<path d="M148.61 46.0939C152.372 42.3343 152.372 36.2389 148.61 32.4793C144.849 28.7197 138.749 28.7197 134.988 32.4793L49.838 117.578C46.0762 121.338 46.0762 127.433 49.838 131.193C53.5998 134.952 59.6989 134.952 63.4607 131.193L148.61 46.0939Z" fill="#BFEBFE"/>
<path d="M173.984 46.0939C177.745 42.3343 177.745 36.2389 173.984 32.4793C170.222 28.7197 164.123 28.7197 160.361 32.4793L75.2111 117.578C71.4492 121.338 71.4493 127.433 75.2111 131.193C78.9729 134.952 85.072 134.952 88.8338 131.193L173.984 46.0939Z" fill="#BFEBFE"/>
<path d="M96.2674 20.4219C100.029 16.6624 100.029 10.5669 96.2674 6.80731C92.5056 3.04774 86.4064 3.04774 82.6446 6.80731L6.8112 82.5954C3.04938 86.355 3.04938 92.4505 6.8112 96.21C10.573 99.9696 16.6721 99.9696 20.434 96.21L96.2674 20.4219Z" fill="#BFEBFE"/>
<path d="M117.635 129.608H55.9015V48.4865H98.3339L117.635 67.7757V129.608Z" fill="white" stroke="#CCCCCC"/>
<path d="M114.952 69.6215H96.4865V51.1672L114.952 69.6215Z" fill="#EEEFF0"/>
<path d="M71.2184 83.2196H104.262V87.1046H71.2184V83.2196ZM71.2184 90.99H96.4865V94.875H71.2184V90.99ZM71.2184 98.76H104.262V102.645H71.2184V98.76ZM71.2184 106.53H96.4865V110.415H71.2184V106.53Z" fill="#CCCCCC"/>
<path d="M58.8241 39.0624C58.2284 39.6964 57.3845 40.0946 56.4459 40.0946C54.6424 40.0946 53.1804 38.6335 53.1804 36.8311C53.1804 35.0287 54.6424 33.5676 56.4459 33.5676V27.5067C51.3154 27.5067 47.116 31.7036 47.116 36.8311C47.116 41.9585 51.3154 46.1554 56.4459 46.1554C59.1408 46.1554 61.5764 45.016 63.2366 43.2033L58.8241 39.0624Z" fill="#7AEF1F"/>
<path d="M56.4459 27.5067V33.5676C58.2493 33.5676 59.7113 35.0287 59.7113 36.8311H65.7758C65.7758 31.7036 61.5764 27.5067 56.4459 27.5067Z" fill="#2CCF81"/>
<path d="M59.7113 36.8311C59.7113 37.8717 59.2225 38.7967 58.463 39.3939L62.1992 44.1614C64.374 42.4546 65.7758 39.8088 65.7758 36.8311H59.7113Z" fill="#56AF0F"/>
<path d="M44.335 82.0289L37.3522 88.4906C37.138 88.6888 37.1252 89.0235 37.3235 89.2375L38.382 90.3802C38.5609 90.5732 38.8584 90.6296 39.078 90.4842C39.3575 90.2991 39.3953 89.9182 39.1769 89.6827L38.7987 89.2743C38.6108 89.0715 38.623 88.755 38.8259 88.5671L40.7861 86.753L46.9117 93.3649C47.0997 93.5677 47.0871 93.8843 46.8841 94.0717L46.1085 94.7897C45.9153 94.9687 45.8586 95.2666 46.0046 95.4857C46.1903 95.7655 46.5709 95.8023 46.8062 95.5841L50.6651 92.0134C50.8582 91.8348 50.9151 91.5364 50.7691 91.3173C50.5834 91.0376 50.2028 91.0012 49.9672 91.2189L49.1709 91.956C48.968 92.1439 48.6512 92.1318 48.4632 91.929L42.3379 85.3171L44.2981 83.5035C44.5009 83.3156 44.8177 83.3277 45.0056 83.5306L45.3648 83.9184C45.5437 84.1115 45.8412 84.1679 46.0608 84.0224C46.3403 83.8373 46.3781 83.4564 46.1597 83.221L45.0821 82.0578C44.8838 81.8438 44.5491 81.8307 44.335 82.0289Z" fill="black"/>
<path d="M141.931 74.8869L132.185 80.3943C131.512 80.7748 130.659 80.5379 130.278 79.8652L125.801 71.9516C125.42 71.2793 125.657 70.4262 126.33 70.0457L136.076 64.5383C136.748 64.1579 137.602 64.3952 137.983 65.0675L142.46 72.981C142.841 73.6533 142.604 74.507 141.931 74.8869Z" fill="#FFC107"/>
<path d="M135.189 68.6545C135.475 69.159 136.115 69.3366 136.62 69.0513C137.124 68.766 137.302 68.1263 137.017 67.6219C136.731 67.1174 136.091 66.9398 135.586 67.2251C135.082 67.5104 134.904 68.1501 135.189 68.6545Z" fill="#FFF8E1"/>
<path d="M131.535 70.7199L130.94 77.4828L137.64 73.6967L131.535 70.7199Z" fill="#D85700"/>
<path d="M135.918 70.6528L135.204 75.0734L140.077 72.3195L135.918 70.6528Z" fill="#EF7E03"/>
</g>
<defs>
<clipPath id="clip0">
<rect width="181" height="138" fill="white"/>
</clipPath>
</defs>
</svg>
