<svg width="12" height="12" viewBox="0 0 12 12" fill="none" xmlns="http://www.w3.org/2000/svg">
<path d="M4.83301 1.00001L4.58789 2.26172C4.17581 2.41713 3.79739 2.63497 3.46582 2.90723L2.25391 2.48926L1.08594 4.51075L2.05664 5.3545C2.01932 5.58361 2 5.79593 2 6.00001C2 6.20439 2.0199 6.41632 2.05664 6.64551V6.64649L1.08594 7.49024L2.25391 9.51075L3.46484 9.09376C3.79645 9.36617 4.17572 9.58279 4.58789 9.73829L4.83301 11H7.16699L7.41211 9.73829C7.82446 9.58278 8.20245 9.36529 8.53418 9.09278L9.74609 9.51075L10.9131 7.49024L9.94336 6.64551C9.98068 6.4164 10 6.20408 10 6.00001C10 5.79623 9.98057 5.58419 9.94336 5.35548V5.3545L10.9141 4.50977L9.74609 2.48926L8.53516 2.90626C8.20355 2.63385 7.82428 2.41722 7.41211 2.26172L7.16699 1.00001H4.83301ZM5.65723 2.00001H6.34277L6.53711 3.00001L7.05859 3.19727C7.37293 3.31574 7.65534 3.47838 7.90039 3.67969L8.33203 4.03321L9.29297 3.70313L9.63574 4.2959L8.86816 4.96387L8.95605 5.51368V5.51465C8.98663 5.70212 9 5.85939 9 6.00001C9 6.14062 8.98663 6.29787 8.95605 6.48536L8.86719 7.03516L9.63477 7.70313L9.29199 8.29688L8.33203 7.96583L7.89941 8.32032C7.65436 8.52163 7.37293 8.68427 7.05859 8.80274H7.05762L6.53613 9.00001L6.3418 10H5.65723L5.46289 9.00001L4.94141 8.80274C4.62707 8.68427 4.34466 8.52163 4.09961 8.32032L3.66797 7.9668L2.70703 8.29688L2.36426 7.70411L3.13281 7.03516L3.04395 6.48731V6.48633C3.01381 6.29805 3 6.14034 3 6.00001C3 5.85939 3.01337 5.70215 3.04395 5.51465L3.13281 4.96485L2.36426 4.29688L2.70703 3.70313L3.66797 4.03419L4.09961 3.67969C4.34466 3.47838 4.62707 3.31574 4.94141 3.19727L5.46289 3.00001L5.65723 2.00001ZM6 4.00001C4.90174 4.00001 4 4.90174 4 6.00001C4 7.09827 4.90174 8.00001 6 8.00001C7.09826 8.00001 8 7.09827 8 6.00001C8 4.90174 7.09826 4.00001 6 4.00001ZM6 5.00001C6.55574 5.00001 7 5.44427 7 6.00001C7 6.55575 6.55574 7.00001 6 7.00001C5.44426 7.00001 5 6.55575 5 6.00001C5 5.44427 5.44426 5.00001 6 5.00001Z" fill="#666666"/>
</svg>
