<svg width="14" height="14" viewBox="0 0 14 14" fill="none" xmlns="http://www.w3.org/2000/svg">
<path d="M0 1.39999V12.6H14V11.5H1V1.39999H0ZM4.54453 3.14999C4.45361 3.15144 4.36682 3.18822 4.30254 3.25253L1.50254 6.05253C1.46895 6.08478 1.44213 6.12341 1.42366 6.16616C1.40518 6.2089 1.39542 6.2549 1.39495 6.30147C1.39448 6.34803 1.4033 6.39422 1.4209 6.43733C1.4385 6.48045 1.46453 6.51961 1.49745 6.55254C1.53038 6.58547 1.56955 6.61149 1.61266 6.6291C1.65577 6.6467 1.70196 6.65552 1.74853 6.65504C1.79509 6.65457 1.84109 6.64481 1.88384 6.62634C1.92658 6.60786 1.96521 6.58105 1.99746 6.54745L4.49531 4.0496L7.05879 7.89413C7.10609 7.96495 7.17758 8.0161 7.25987 8.03799C7.34217 8.05989 7.42962 8.05103 7.50586 8.01308L10.0803 6.72519L12.7025 9.34745C12.7348 9.38104 12.7734 9.40786 12.8162 9.42633C12.8589 9.4448 12.9049 9.45456 12.9515 9.45503C12.998 9.4555 13.0442 9.44668 13.0873 9.42908C13.1304 9.41148 13.1696 9.38545 13.2025 9.35253C13.2355 9.3196 13.2615 9.28044 13.2791 9.23733C13.2967 9.19422 13.3055 9.14803 13.305 9.10146C13.3046 9.0549 13.2948 9.0089 13.2763 8.96616C13.2579 8.92341 13.231 8.88478 13.1975 8.85253L10.3975 6.05253C10.3456 6.00073 10.2787 5.96653 10.2064 5.95476C10.134 5.94299 10.0598 5.95423 9.99414 5.98691L7.47031 7.24882L4.84121 3.30585C4.80874 3.25714 4.76457 3.21734 4.71274 3.19011C4.6609 3.16288 4.60307 3.14909 4.54453 3.14999Z" fill="#666666"/>
</svg>
