<svg width="12" height="12" viewBox="0 0 12 12" fill="none" xmlns="http://www.w3.org/2000/svg">
<path d="M6 0C2.68696 0 0 2.68696 0 6C0 9.31304 2.68696 12 6 12C9.31304 12 12 9.31304 12 6C12 2.68696 9.31304 0 6 0ZM6.48261 10.9304C6.45652 10.9304 6.3913 10.9304 6.3913 10.9435V8.11304C7.04348 8.09999 7.68261 8.08695 8.24348 8.04782C7.74783 9.57391 6.83478 10.5913 6.48261 10.9304ZM5.51739 10.9304C5.16522 10.5783 4.25217 9.56086 3.75652 8.04782C4.30435 8.08695 4.95652 8.11304 5.6087 8.11304V10.9435C5.6087 10.9435 5.55652 10.9304 5.51739 10.9304ZM1.04348 6C1.04348 5.67391 1.08261 5.34782 1.13478 5.03478C1.42174 4.98261 1.96957 4.90435 2.73913 4.82609C2.67391 5.20435 2.63478 5.59565 2.63478 6.01304C2.63478 6.43043 2.67392 6.82175 2.72609 7.18697C1.96957 7.10871 1.40869 7.03043 1.12174 6.97826C1.08261 6.65217 1.04348 6.32609 1.04348 6ZM3.43043 6C3.43043 5.55652 3.48261 5.13913 3.56087 4.74783C4.16087 4.7087 4.82609 4.66957 5.6087 4.66957V7.33043C4.82609 7.31738 4.16087 7.2913 3.54783 7.23913C3.48261 6.86087 3.43043 6.44348 3.43043 6ZM6.46956 1.06956C6.82174 1.42173 7.72174 2.46522 8.23043 3.95218C7.68261 3.91305 7.04348 3.88696 6.3913 3.88696V1.05652C6.3913 1.05652 6.44348 1.06956 6.46956 1.06956ZM5.6087 1.05652V3.88696C4.95652 3.90001 4.31739 3.91305 3.76957 3.95218C4.26522 2.46522 5.17826 1.42173 5.51739 1.06956C5.55652 1.06956 5.6087 1.05652 5.6087 1.05652ZM6.3913 7.33043V4.66957C7.17391 4.68261 7.83913 4.7087 8.43913 4.74783C8.51739 5.13913 8.56957 5.55652 8.56957 6C8.56957 6.44348 8.53043 6.86088 8.45217 7.25219C7.85217 7.29132 7.17391 7.31738 6.3913 7.33043ZM9.24783 4.82609C10.0174 4.90435 10.5652 4.98261 10.8522 5.03478C10.9174 5.34782 10.9435 5.67391 10.9435 6C10.9435 6.32609 10.9043 6.65216 10.8522 6.9652C10.5652 7.01738 10.0174 7.09565 9.24783 7.17391C9.31305 6.79565 9.33913 6.40435 9.33913 5.98696C9.35217 5.59566 9.31305 5.1913 9.24783 4.82609ZM10.6174 4.19999C10.2522 4.14782 9.73043 4.08261 9.06522 4.0174C8.75217 2.89566 8.20435 1.99566 7.74783 1.35652C9.06522 1.85218 10.1087 2.89565 10.6174 4.19999ZM4.25217 1.35652C3.78261 1.98261 3.24783 2.8826 2.93478 4.00434C2.28261 4.05652 1.76087 4.13478 1.38261 4.18695C1.8913 2.89565 2.94782 1.85218 4.25217 1.35652ZM1.38261 7.80001C1.74782 7.85218 2.26957 7.91738 2.92174 7.9826C3.23479 9.10434 3.75652 10.0043 4.22609 10.6304C2.92174 10.1217 1.8913 9.09131 1.38261 7.80001ZM7.77391 10.6304C8.24347 10.0043 8.76521 9.1174 9.07826 7.99566C9.73043 7.94348 10.2522 7.8652 10.6174 7.81303C10.1087 9.09129 9.07826 10.1217 7.77391 10.6304Z" fill="#666666"/>
</svg>
