<svg width="34" height="34" viewBox="0 0 34 34" fill="none" xmlns="http://www.w3.org/2000/svg">
<path d="M17.0004 34C26.3889 34 34 26.3884 34 17C34 7.61014 26.3897 0 17.0004 0C7.61107 0 0 7.61014 0 17C0 26.3884 7.61107 34 17.0004 34Z" fill="#1FC0E7"/>
<path d="M8.2833 16.9957L11.1786 14.0868C11.2745 13.9901 11.3282 13.8602 11.3282 13.7226C11.3282 13.4355 11.0955 13.2028 10.8091 13.2028C10.6693 13.2028 10.5386 13.2572 10.4404 13.3577L7.54663 16.2538L4.64152 13.3524C4.5433 13.2557 4.41335 13.2028 4.27508 13.2028C3.98797 13.2028 3.75601 13.4355 3.75601 13.7219C3.75601 13.8617 3.81192 13.9939 3.91166 14.0921L6.80695 16.9912L3.91317 19.8925C3.81192 19.9938 3.75601 20.1252 3.75601 20.265C3.75601 20.5521 3.98872 20.7848 4.27508 20.7848C4.41335 20.7848 4.5433 20.7319 4.64152 20.6337L7.54286 17.7309L10.4329 20.6224C10.5356 20.7282 10.6671 20.7848 10.8091 20.7848C11.0947 20.7848 11.3274 20.5521 11.3274 20.265C11.3274 20.1267 11.2745 19.9968 11.1763 19.8986L8.28255 16.9927L8.2833 16.9957ZM25.4956 16.995C25.4956 17.5163 25.9187 17.9394 26.4401 17.9394C26.9584 17.9394 27.3815 17.5163 27.3815 16.995C27.3815 16.4736 26.9584 16.0505 26.4393 16.0505C25.9202 16.0505 25.4979 16.4736 25.4979 16.995H25.4956ZM23.7087 16.995C23.7087 15.4876 24.9327 14.2598 26.4393 14.2598C27.9429 14.2598 29.1691 15.4876 29.1691 16.995C29.1691 18.5023 27.9436 19.7301 26.4393 19.7301C24.9335 19.7301 23.7087 18.5038 23.7087 16.995ZM22.6343 16.995C22.6343 19.0954 24.3419 20.806 26.4393 20.806C28.5367 20.806 30.2443 19.0969 30.2443 16.9957C30.2443 14.8953 28.5367 13.1847 26.4393 13.1847C24.3411 13.1847 22.6343 14.8945 22.6343 16.9957V16.995ZM22.3646 13.2497H22.2059C21.7261 13.2497 21.2637 13.4008 20.8777 13.6992C20.8248 13.468 20.6162 13.2912 20.3684 13.2912C20.0836 13.2912 19.8546 13.5217 19.8546 13.808L19.8561 20.2265C19.8561 20.5113 20.0904 20.7433 20.3737 20.7433C20.6593 20.7433 20.892 20.5113 20.8928 20.225V16.2779C20.8928 14.9633 21.0137 14.4314 22.1379 14.2908C22.2437 14.278 22.3555 14.2802 22.357 14.2802C22.6638 14.2689 22.8829 14.0566 22.8829 13.7702C22.8829 13.4831 22.6487 13.2504 22.3616 13.2504L22.3646 13.2497ZM12.4018 16.3686C12.4018 16.3535 12.4033 16.3384 12.4041 16.3248C12.7048 15.131 13.7837 14.2493 15.0674 14.2493C16.367 14.2493 17.455 15.1514 17.7421 16.3663H12.4011L12.4018 16.3686ZM18.8037 16.2704C18.58 15.2103 18.0005 14.3392 17.1188 13.7801C15.8283 12.9595 14.1253 13.0049 12.8801 13.8934C11.8631 14.6165 11.2761 15.8012 11.2761 17.0214C11.2761 17.3274 11.3138 17.6364 11.3894 17.9409C11.7732 19.452 13.0713 20.5974 14.6186 20.7871C15.078 20.843 15.5253 20.8173 15.9862 20.6964C16.3851 20.5982 16.7697 20.438 17.1241 20.2098C17.492 19.9734 17.7995 19.6606 18.0987 19.2866C18.1033 19.279 18.1093 19.2737 18.1153 19.2662C18.3224 19.0093 18.2838 18.6421 18.0572 18.4683C17.8653 18.321 17.5434 18.2613 17.291 18.5862C17.2366 18.6647 17.1754 18.7448 17.1097 18.8242C16.908 19.047 16.6579 19.2624 16.3587 19.4301C15.9764 19.6341 15.5427 19.7497 15.0818 19.7527C13.5722 19.7354 12.7653 18.6798 12.4774 17.9273C12.4275 17.786 12.389 17.6402 12.3618 17.4891L12.3542 17.4098H17.7716C18.5135 17.3931 18.9125 16.868 18.8021 16.2689L18.8037 16.2704Z" fill="white"/>
</svg>
