<svg width="34" height="29" viewBox="0 0 34 29" fill="none" xmlns="http://www.w3.org/2000/svg">
<g clip-path="url(#clip0)">
<path d="M15.1748 0.358729L2.50473 5.60145C1.80014 5.89305 1.80744 6.89384 2.51645 7.17486L15.2396 12.2203C16.3575 12.6637 17.6025 12.6637 18.7202 12.2203L31.4435 7.17486C32.1524 6.89384 32.1598 5.89305 31.4551 5.60145L18.7852 0.358729C17.6292 -0.119576 16.3306 -0.119576 15.1748 0.358729Z" fill="#FFBF00"/>
<path d="M18.1089 14.9755V27.5797C18.1089 28.1792 18.7134 28.5897 19.2706 28.3688L33.4481 22.8658C33.7717 22.7375 33.984 22.4248 33.984 22.0767V9.47252C33.984 8.87301 33.3795 8.46251 32.8222 8.68341L18.6448 14.1864C18.3213 14.3147 18.1089 14.6275 18.1089 14.9755Z" fill="#26B5F8"/>
<path d="M14.7983 15.6259L10.5907 17.6574L10.1635 17.8639L1.28163 22.1197C0.71861 22.3913 0 21.981 0 21.3555V9.52544C0 9.29916 0.116023 9.10381 0.271616 8.95666C0.336542 8.89155 0.410113 8.83795 0.486565 8.7955C0.698825 8.66814 1.00156 8.63415 1.25896 8.73595L14.7276 14.0724C15.4122 14.344 15.466 15.3033 14.7983 15.6259Z" fill="#ED3049"/>
<path d="M14.7986 15.6259L10.5911 17.6574L0.271973 8.95666C0.336899 8.89155 0.41047 8.83795 0.486922 8.7955C0.699182 8.66814 1.00192 8.63415 1.25932 8.73595L14.7279 14.0724C15.4125 14.344 15.4663 15.3033 14.7986 15.6259Z" fill="black" fill-opacity="0.25"/>
</g>
<defs>
<clipPath id="clip0">
<rect width="34" height="28.5547" fill="white"/>
</clipPath>
</defs>
</svg>
