<svg width="334" height="255" viewBox="0 0 334 255" fill="none" xmlns="http://www.w3.org/2000/svg">
<rect x="215.01" width="35.578" height="233.629" rx="17.789" transform="rotate(45 215.01 0)" fill="#BFEBFE"/>
<rect x="215.01" y="47.4373" width="35.578" height="257.96" rx="17.789" transform="rotate(45 215.01 47.4373)" fill="#BFEBFE"/>
<rect x="261.863" y="47.4373" width="35.578" height="257.96" rx="17.789" transform="rotate(45 261.863 47.4373)" fill="#BFEBFE"/>
<rect x="308.721" y="47.4373" width="35.578" height="257.96" rx="17.789" transform="rotate(45 308.721 47.4373)" fill="#BFEBFE"/>
<rect x="165.2" width="35.578" height="233.629" rx="17.789" transform="rotate(45 165.2 0)" fill="#BFEBFE"/>
<path d="M71.1667 206.75C71.1667 208.038 70.1219 209.083 68.8333 209.083C67.5447 209.083 66.5 208.038 66.5 206.75C66.5 205.461 67.5447 204.417 68.8333 204.417C70.1219 204.417 71.1667 205.461 71.1667 206.75ZM87.5 206.75C87.5 205.461 86.4552 204.417 85.1667 204.417C83.8781 204.417 82.8333 205.461 82.8333 206.75C82.8333 208.038 83.8781 209.083 85.1667 209.083C86.4552 209.083 87.5 208.038 87.5 206.75Z" fill="#FFA726"/>
<path d="M68.2227 202.715C68.1819 195.293 85.6959 197.785 85.7227 202.618L85.7548 208.452C85.7816 213.284 81.8856 217.223 77.0532 217.25C72.2209 217.277 68.2816 213.381 68.2548 208.548L68.2227 202.715Z" fill="#FFB74D"/>
<path d="M86.8528 202.28C86.5763 198.796 85.3588 195.364 81.083 194.5L79.9163 192.75H76.9997C71.6161 192.75 67.083 197.114 67.083 203.25V205.233L68.833 207.333V203.833L81.083 199.75L85.1663 203.25V207.333L86.9163 205.233V203.25C86.9163 202.921 86.8913 202.598 86.8528 202.28Z" fill="#FFE082"/>
<path d="M82.25 207.333C82.25 207.978 81.7279 208.5 81.0833 208.5C80.4382 208.5 79.9167 207.978 79.9167 207.333C79.9167 206.689 80.4382 206.167 81.0833 206.167C81.7279 206.167 82.25 206.689 82.25 207.333ZM74.0833 207.333C74.0833 206.689 73.5607 206.167 72.9167 206.167C72.2715 206.167 71.75 206.689 71.75 207.333C71.75 207.978 72.2715 208.5 72.9167 208.5C73.5607 208.5 74.0833 207.978 74.0833 207.333Z" fill="#784719"/>
<path d="M74.083 212.583H79.9163C79.9163 212.583 78.7497 214.333 76.9997 214.333C75.2497 214.333 74.083 212.583 74.083 212.583Z" fill="#FB8C00"/>
<path d="M99 95C99 95 93 93 88 93C83 93 77 95 77 95V83H99V95Z" fill="#3E2723"/>
<path d="M78 79C78 81.208 76.209 83 74 83C71.791 83 70 81.208 70 79C70 76.791 71.791 75 74 75C76.209 75 78 76.791 78 79ZM106 79C106 81.208 104.209 83 102 83C99.791 83 98 81.208 98 79C98 76.791 99.791 75 102 75C104.209 75 106 76.791 106 79Z" fill="#FFA726"/>
<path d="M102 69C102 56.275 74 60.715 74 69V78C74 86.286 80.269 93 88 93C95.731 93 102 86.286 102 78V69Z" fill="#E5852E"/>
<path d="M96 77C96 78.106 95.104 79 94 79C92.895 79 92 78.106 92 77C92 75.895 92.895 75 94 75C95.104 75 96 75.895 96 77ZM84 77C84 75.895 83.104 75 82 75C80.895 75 80 75.895 80 77C80 78.106 80.895 79 82 79C83.104 79 84 78.106 84 77Z" fill="#212121"/>
<path d="M88 55C79.495 55 67.126 60 67 87L77 95V75L94 66L99 73V95L109 87C109 75 108.457 58 94 58L92 55H88Z" fill="#6D4C41"/>
<path d="M83 86H93C93 86 91 89 88 89C85 89 83 86 83 86Z" fill="#FFAB91"/>
<rect x="190.5" y="49.5" width="104" height="43" rx="3.5" fill="white" stroke="#CCCCCC"/>
<path d="M206 72.5C204.011 72.5 202.103 73.2902 200.697 74.6967C199.29 76.1032 198.5 78.0109 198.5 80C198.5 81.9891 199.29 83.8968 200.697 85.3033C202.103 86.7098 204.011 87.5 206 87.5C207.989 87.5 209.897 86.7098 211.303 85.3033C212.71 83.8968 213.5 81.9891 213.5 80C213.5 78.0109 212.71 76.1032 211.303 74.6967C209.897 73.2902 207.989 72.5 206 72.5Z" fill="#EDE7F6"/>
<path d="M206 87.5C207.687 87.5 209.225 86.9375 210.462 86C210.237 83.15 207.387 82.625 207.387 82.625L206 82.925L204.612 82.625C204.612 82.625 201.762 83.15 201.537 86C202.775 86.9375 204.312 87.5 206 87.5Z" fill="#673AB7"/>
<path d="M206 84.875C207.163 84.875 208.1 84.0125 208.213 82.8875C207.875 82.7375 207.613 82.6625 207.463 82.625C207.463 83.45 206.788 84.0875 205.963 84.0875C205.138 84.0875 204.463 83.4125 204.463 82.625C204.313 82.6625 204.05 82.7375 203.713 82.8875C203.9 84.0125 204.838 84.875 206 84.875Z" fill="#311B92"/>
<path d="M209 79.4375C209 79.7375 208.738 80 208.438 80C208.137 80 207.875 79.7375 207.875 79.4375C207.875 79.1375 208.137 78.875 208.438 78.875C208.738 78.875 209 79.1375 209 79.4375ZM204.125 79.4375C204.125 79.1375 203.863 78.875 203.562 78.875C203.262 78.875 203 79.1375 203 79.4375C203 79.7375 203.262 80 203.562 80C203.863 80 204.125 79.7375 204.125 79.4375Z" fill="#EDBD28"/>
<path d="M206 84.125C204.5 84.125 204.5 82.625 204.5 82.625V81.125H207.5V82.625C207.5 82.625 207.5 84.125 206 84.125Z" fill="#EDB405"/>
<path d="M208.625 78.0125C208.625 75.8 203.375 76.5875 203.375 78.0125V79.6625C203.375 81.0875 204.537 82.25 206 82.25C207.463 82.25 208.625 81.0875 208.625 79.6625V78.0125Z" fill="#FFCA28"/>
<path d="M206 75.125C204.162 75.125 203 76.7375 203 78.2V78.875L203.75 79.625V78.125L207.2 77L208.25 78.125V79.625L209 78.875V78.575C209 77.375 208.7 76.025 207.2 75.725L206.9 75.125H206Z" fill="#795548"/>
<path d="M206.75 79.25C206.75 79.025 206.9 78.875 207.125 78.875C207.35 78.875 207.5 79.025 207.5 79.25C207.5 79.475 207.35 79.625 207.125 79.625C206.9 79.625 206.75 79.475 206.75 79.25ZM204.5 79.25C204.5 79.475 204.65 79.625 204.875 79.625C205.1 79.625 205.25 79.475 205.25 79.25C205.25 79.025 205.1 78.875 204.875 78.875C204.65 78.875 204.5 79.025 204.5 79.25Z" fill="#784719"/>
<path d="M225 72.5C223.011 72.5 221.103 73.2902 219.697 74.6967C218.29 76.1032 217.5 78.0109 217.5 80C217.5 81.9891 218.29 83.8968 219.697 85.3033C221.103 86.7098 223.011 87.5 225 87.5C226.989 87.5 228.897 86.7098 230.303 85.3033C231.71 83.8968 232.5 81.9891 232.5 80C232.5 78.0109 231.71 76.1032 230.303 74.6967C228.897 73.2902 226.989 72.5 225 72.5Z" fill="#EDE7F6"/>
<path d="M222.75 77.8438H227.25V82.9062H222.75V77.8438Z" fill="#4E342E"/>
<path d="M225 87.5C226.681 87.5 228.227 86.9405 229.477 86.0068C229.247 83.2404 226.5 82.625 226.5 82.625H223.5C223.5 82.625 220.752 83.2303 220.522 86.0068C221.773 86.9405 223.319 87.5 225 87.5Z" fill="#FF1744"/>
<path d="M225 84.0312C224.46 84.0312 223.688 82.625 223.688 82.625V80.75H226.312V82.625C226.312 82.625 225.54 84.0312 225 84.0312Z" fill="#C16E14"/>
<path d="M227.625 79.625C227.625 81.023 226.398 82.25 225 82.25C223.602 82.25 222.375 81.023 222.375 79.625V77.375C222.375 75.977 227.625 75.2278 227.625 77.375V79.625ZM225 84.5C226.088 84.5 226.312 82.625 226.312 82.625C226.312 82.625 225.614 83.75 225 83.75C224.386 83.75 223.688 82.625 223.688 82.625C223.688 82.625 223.912 84.5 225 84.5Z" fill="#E5852E"/>
<path d="M225.75 79.25C225.75 79.0434 225.918 78.875 226.125 78.875C226.332 78.875 226.5 79.0434 226.5 79.25C226.5 79.4566 226.332 79.625 226.125 79.625C225.918 79.625 225.75 79.4566 225.75 79.25ZM223.5 79.25C223.5 79.4566 223.668 79.625 223.875 79.625C224.082 79.625 224.25 79.4566 224.25 79.25C224.25 79.0434 224.082 78.875 223.875 78.875C223.668 78.875 223.5 79.0434 223.5 79.25Z" fill="#212121"/>
<path d="M225 75.125C223.068 74.5995 221.079 78.1913 221 84.5C221.52 83.7093 221.878 83.3344 222.75 82.9063V78.875L226.125 77L227.25 78.5V82.898C228.036 83.2884 228.392 83.7304 229 84.5C228.959 82.9001 228.979 75.0773 226.125 75.6875L225.75 75.125H225Z" fill="#6D4C41"/>
<path d="M244 72.5C242.011 72.5 240.103 73.2902 238.697 74.6967C237.29 76.1032 236.5 78.0109 236.5 80C236.5 81.9891 237.29 83.8968 238.697 85.3033C240.103 86.7098 242.011 87.5 244 87.5C245.989 87.5 247.897 86.7098 249.303 85.3033C250.71 83.8968 251.5 81.9891 251.5 80C251.5 78.0109 250.71 76.1032 249.303 74.6967C247.897 73.2902 245.989 72.5 244 72.5Z" fill="#EDE7F6"/>
<path d="M241.75 77.8438H246.25V82.9062H241.75V77.8438Z" fill="#4E342E"/>
<path d="M244 87.5C245.681 87.5 247.227 86.9405 248.477 86.0068C248.247 83.2404 245.5 82.625 245.5 82.625H242.5C242.5 82.625 239.752 83.2303 239.522 86.0068C240.773 86.9405 242.319 87.5 244 87.5Z" fill="#19B9FD"/>
<path d="M244 84.0312C243.46 84.0312 242.688 82.625 242.688 82.625V80.75H245.312V82.625C245.312 82.625 244.54 84.0312 244 84.0312Z" fill="#C49D7A"/>
<path d="M246.625 79.625C246.625 81.023 245.398 82.25 244 82.25C242.602 82.25 241.375 81.023 241.375 79.625V77.375C241.375 75.977 246.625 75.2278 246.625 77.375V79.625ZM244 84.5C245.088 84.5 245.312 82.625 245.312 82.625C245.312 82.625 244.614 83.75 244 83.75C243.386 83.75 242.688 82.625 242.688 82.625C242.688 82.625 242.912 84.5 244 84.5Z" fill="#FFD4AD"/>
<path d="M244.75 79.25C244.75 79.0434 244.918 78.875 245.125 78.875C245.332 78.875 245.5 79.0434 245.5 79.25C245.5 79.4566 245.332 79.625 245.125 79.625C244.918 79.625 244.75 79.4566 244.75 79.25ZM242.5 79.25C242.5 79.4566 242.668 79.625 242.875 79.625C243.082 79.625 243.25 79.4566 243.25 79.25C243.25 79.0434 243.082 78.875 242.875 78.875C242.668 78.875 242.5 79.0434 242.5 79.25Z" fill="#494949"/>
<path d="M244 75.125C242.291 75.125 239.875 75.9084 239.875 81.5L241.75 82.9062V78.875L245.125 77L246.25 78.5V83L248.125 81.125C248.125 79.9929 248.029 75.6875 245.125 75.6875L244.75 75.125H244Z" fill="#F6F890"/>
<path d="M263 72.5C261.011 72.5 259.103 73.2902 257.697 74.6967C256.29 76.1032 255.5 78.0109 255.5 80C255.5 81.9891 256.29 83.8968 257.697 85.3033C259.103 86.7098 261.011 87.5 263 87.5C264.989 87.5 266.897 86.7098 268.303 85.3033C269.71 83.8968 270.5 81.9891 270.5 80C270.5 78.0109 269.71 76.1032 268.303 74.6967C266.897 73.2902 264.989 72.5 263 72.5Z" fill="#EDE7F6"/>
<path d="M263 87.5C264.687 87.5 266.225 86.9375 267.462 86C267.237 83.15 264.387 82.625 264.387 82.625L263 82.925L261.612 82.625C261.612 82.625 258.762 83.15 258.537 86C259.775 86.9375 261.312 87.5 263 87.5Z" fill="#F36A6A"/>
<path d="M263 84.875C264.163 84.875 265.1 84.0125 265.213 82.8875C264.875 82.7375 264.613 82.6625 264.463 82.625C264.463 83.45 263.788 84.0875 262.963 84.0875C262.138 84.0875 261.463 83.4125 261.463 82.625C261.313 82.6625 261.05 82.7375 260.713 82.8875C260.9 84.0125 261.838 84.875 263 84.875Z" fill="#311B92"/>
<path d="M266 79.4375C266 79.7375 265.738 80 265.438 80C265.137 80 264.875 79.7375 264.875 79.4375C264.875 79.1375 265.137 78.875 265.438 78.875C265.738 78.875 266 79.1375 266 79.4375ZM261.125 79.4375C261.125 79.1375 260.863 78.875 260.562 78.875C260.262 78.875 260 79.1375 260 79.4375C260 79.7375 260.262 80 260.562 80C260.863 80 261.125 79.7375 261.125 79.4375Z" fill="#B55D0D"/>
<path d="M263 84.125C261.5 84.125 261.5 82.625 261.5 82.625V81.125H264.5V82.625C264.5 82.625 264.5 84.125 263 84.125Z" fill="#894609"/>
<path d="M265.625 78.0125C265.625 75.8 260.375 76.5875 260.375 78.0125V79.6625C260.375 81.0875 261.537 82.25 263 82.25C264.463 82.25 265.625 81.0875 265.625 79.6625V78.0125Z" fill="#B55D0D"/>
<path d="M261.5 75.5C259.662 75.5 260 76.7375 260 78.2V78.875L260.75 79.625V78.125L264.2 77L265.25 78.125V79.625L266 78.875V78.575C266 77.375 265.7 76.025 264.2 75.725L263.9 75.125L261.5 75.5Z" fill="black"/>
<path d="M263.75 79.25C263.75 79.025 263.9 78.875 264.125 78.875C264.35 78.875 264.5 79.025 264.5 79.25C264.5 79.475 264.35 79.625 264.125 79.625C263.9 79.625 263.75 79.475 263.75 79.25ZM261.5 79.25C261.5 79.475 261.65 79.625 261.875 79.625C262.1 79.625 262.25 79.475 262.25 79.25C262.25 79.025 262.1 78.875 261.875 78.875C261.65 78.875 261.5 79.025 261.5 79.25Z" fill="#212121"/>
<path d="M200.8 61.02H199.66V58.8H200.8C201.2 58.8 201.51 58.9 201.73 59.1C201.95 59.3 202.07 59.57 202.07 59.91C202.07 60.25 201.95 60.52 201.73 60.72C201.51 60.92 201.2 61.02 200.8 61.02ZM201.01 64.2H199.66V61.8H201.01C201.25 61.8 201.47 61.84 201.65 61.9C201.83 61.96 201.98 62.05 202.1 62.16C202.22 62.27 202.3 62.4 202.36 62.54C202.42 62.68 202.45 62.84 202.45 63C202.45 63.17 202.42 63.33 202.36 63.47C202.3 63.61 202.22 63.74 202.1 63.85C201.98 63.96 201.83 64.05 201.65 64.11C201.47 64.17 201.25 64.2 201.01 64.2ZM198.82 58V65H201.01C201.35 65 201.67 64.96 201.95 64.86C202.23 64.77 202.47 64.64 202.67 64.46C202.87 64.29 203.02 64.08 203.13 63.83C203.23 63.58 203.29 63.3 203.29 62.98C203.29 62.64 203.23 62.37 203.12 62.15C203 61.93 202.88 61.76 202.74 61.63C202.6 61.51 202.46 61.42 202.34 61.37C202.22 61.32 202.14 61.29 202.12 61.28C202.14 61.28 202.19 61.25 202.27 61.2C202.35 61.15 202.44 61.07 202.54 60.96C202.64 60.85 202.72 60.71 202.8 60.53C202.87 60.35 202.91 60.13 202.91 59.87C202.91 59.59 202.86 59.34 202.76 59.11C202.66 58.89 202.51 58.69 202.32 58.52C202.13 58.36 201.9 58.23 201.62 58.14C201.34 58.05 201.02 58 200.66 58H198.82ZM206.335 64.34C206.095 64.34 205.885 64.3 205.695 64.21C205.505 64.13 205.345 64.01 205.215 63.86C205.075 63.71 204.975 63.53 204.905 63.33C204.825 63.13 204.795 62.92 204.795 62.69C204.795 62.47 204.825 62.25 204.905 62.05C204.975 61.85 205.075 61.68 205.215 61.53C205.345 61.38 205.505 61.26 205.695 61.17C205.885 61.09 206.095 61.04 206.335 61.04C206.565 61.04 206.775 61.09 206.965 61.17C207.155 61.26 207.315 61.38 207.455 61.53C207.585 61.68 207.685 61.85 207.765 62.05C207.835 62.25 207.875 62.47 207.875 62.69C207.875 62.92 207.835 63.13 207.765 63.33C207.685 63.53 207.585 63.71 207.455 63.86C207.315 64.01 207.155 64.13 206.965 64.21C206.775 64.3 206.565 64.34 206.335 64.34ZM206.335 60.26C205.995 60.26 205.675 60.33 205.385 60.45C205.095 60.58 204.845 60.75 204.635 60.97C204.415 61.19 204.255 61.44 204.135 61.74C204.015 62.04 203.955 62.35 203.955 62.69C203.955 63.03 204.015 63.35 204.135 63.65C204.255 63.95 204.415 64.2 204.635 64.42C204.845 64.64 205.095 64.81 205.385 64.93C205.675 65.06 205.995 65.12 206.335 65.12C206.675 65.12 206.985 65.06 207.275 64.93C207.565 64.81 207.815 64.64 208.035 64.42C208.245 64.2 208.415 63.95 208.535 63.65C208.655 63.35 208.715 63.03 208.715 62.69C208.715 62.35 208.655 62.04 208.535 61.74C208.415 61.44 208.245 61.19 208.035 60.97C207.815 60.75 207.565 60.58 207.275 60.45C206.985 60.33 206.675 60.26 206.335 60.26ZM211.345 64.38C211.205 64.38 211.075 64.37 210.955 64.33C210.835 64.3 210.725 64.25 210.625 64.18C210.525 64.12 210.445 64.03 210.385 63.93C210.325 63.83 210.295 63.7 210.295 63.56C210.295 63.31 210.395 63.1 210.605 62.94C210.805 62.78 211.095 62.7 211.475 62.7C211.715 62.7 211.935 62.74 212.155 62.8C212.365 62.86 212.535 62.94 212.675 63.03V63.68C212.545 63.84 212.365 64 212.145 64.15C211.925 64.31 211.655 64.38 211.345 64.38ZM211.505 60.26C211.145 60.26 210.815 60.31 210.515 60.41C210.215 60.51 209.965 60.62 209.775 60.73L210.125 61.43C210.335 61.32 210.565 61.23 210.805 61.15C211.045 61.08 211.275 61.04 211.495 61.04C211.585 61.04 211.695 61.06 211.835 61.08C211.975 61.1 212.105 61.15 212.225 61.23C212.345 61.31 212.455 61.42 212.545 61.56C212.625 61.7 212.675 61.89 212.675 62.13V62.38C212.525 62.29 212.335 62.2 212.095 62.12C211.855 62.04 211.585 62 211.295 62C211.035 62 210.785 62.04 210.565 62.12C210.335 62.2 210.135 62.3 209.975 62.44C209.815 62.58 209.685 62.74 209.595 62.93C209.495 63.12 209.455 63.33 209.455 63.56C209.455 63.81 209.505 64.03 209.605 64.22C209.705 64.42 209.835 64.58 210.005 64.71C210.165 64.85 210.355 64.95 210.555 65.02C210.755 65.09 210.965 65.12 211.185 65.12C211.495 65.12 211.785 65.05 212.065 64.91C212.345 64.77 212.565 64.57 212.745 64.33V65H213.515V61.96C213.515 61.75 213.465 61.54 213.385 61.34C213.305 61.14 213.175 60.95 213.015 60.79C212.855 60.63 212.645 60.51 212.395 60.41C212.135 60.31 211.845 60.26 211.505 60.26ZM216.872 60.26C216.712 60.26 216.562 60.29 216.432 60.33C216.292 60.38 216.172 60.44 216.072 60.52C215.962 60.6 215.862 60.68 215.782 60.78C215.702 60.88 215.632 60.99 215.572 61.09V60.38H214.792V65H215.632V61.82C215.672 61.74 215.722 61.65 215.782 61.55C215.842 61.46 215.922 61.38 216.012 61.3C216.102 61.23 216.202 61.17 216.322 61.12C216.432 61.07 216.562 61.04 216.712 61.04C216.782 61.04 216.862 61.05 216.962 61.07C217.062 61.09 217.142 61.11 217.222 61.14L217.532 60.38C217.422 60.34 217.312 60.31 217.192 60.29C217.072 60.27 216.972 60.26 216.872 60.26ZM221.601 61.84V63.54C221.541 63.64 221.471 63.73 221.391 63.82C221.311 63.92 221.211 64 221.091 64.08C220.971 64.16 220.841 64.22 220.701 64.27C220.561 64.32 220.401 64.34 220.221 64.34C219.991 64.34 219.781 64.3 219.601 64.21C219.411 64.13 219.251 64.01 219.121 63.86C218.991 63.71 218.891 63.53 218.821 63.33C218.741 63.13 218.711 62.92 218.711 62.69C218.711 62.47 218.741 62.25 218.821 62.05C218.891 61.85 218.991 61.68 219.131 61.53C219.261 61.38 219.421 61.26 219.611 61.17C219.791 61.09 220.001 61.04 220.231 61.04C220.551 61.04 220.831 61.12 221.061 61.28C221.281 61.44 221.461 61.63 221.601 61.84ZM220.111 60.26C219.791 60.26 219.501 60.33 219.231 60.45C218.951 60.58 218.721 60.75 218.521 60.97C218.321 61.19 218.161 61.44 218.041 61.74C217.921 62.04 217.871 62.35 217.871 62.69C217.871 63.03 217.921 63.35 218.041 63.65C218.161 63.95 218.321 64.2 218.521 64.42C218.721 64.64 218.961 64.81 219.241 64.93C219.511 65.06 219.801 65.12 220.121 65.12C220.311 65.12 220.491 65.1 220.651 65.05C220.811 65.01 220.951 64.95 221.081 64.87C221.211 64.8 221.331 64.72 221.431 64.62C221.531 64.53 221.611 64.43 221.671 64.33V65H222.441V57.44H221.601V60.95C221.481 60.79 221.291 60.64 221.041 60.49C220.791 60.34 220.481 60.26 220.111 60.26Z" fill="black"/>
<rect x="205.5" y="165.5" width="104" height="43" rx="3.5" fill="white" stroke="#CCCCCC"/>
<path d="M221 188.5C219.011 188.5 217.103 189.29 215.697 190.697C214.29 192.103 213.5 194.011 213.5 196C213.5 197.989 214.29 199.897 215.697 201.303C217.103 202.71 219.011 203.5 221 203.5C222.989 203.5 224.897 202.71 226.303 201.303C227.71 199.897 228.5 197.989 228.5 196C228.5 194.011 227.71 192.103 226.303 190.697C224.897 189.29 222.989 188.5 221 188.5Z" fill="#EDE7F6"/>
<path d="M221 203.5C222.687 203.5 224.225 202.938 225.462 202C225.237 199.15 222.387 198.625 222.387 198.625L221 198.925L219.612 198.625C219.612 198.625 216.762 199.15 216.537 202C217.775 202.938 219.312 203.5 221 203.5Z" fill="#311B92"/>
<path d="M221 200.875C222.163 200.875 223.1 200.013 223.213 198.888C222.875 198.738 222.613 198.663 222.463 198.625C222.463 199.45 221.788 200.088 220.963 200.088C220.138 200.088 219.463 199.412 219.463 198.625C219.313 198.663 219.05 198.738 218.713 198.888C218.9 200.013 219.838 200.875 221 200.875Z" fill="#212121"/>
<path d="M224 195.438C224 195.738 223.738 196 223.438 196C223.137 196 222.875 195.738 222.875 195.438C222.875 195.137 223.137 194.875 223.438 194.875C223.738 194.875 224 195.137 224 195.438ZM219.125 195.438C219.125 195.137 218.863 194.875 218.562 194.875C218.262 194.875 218 195.137 218 195.438C218 195.738 218.262 196 218.562 196C218.863 196 219.125 195.738 219.125 195.438Z" fill="#EDBD28"/>
<path d="M221 200.125C219.5 200.125 219.5 198.625 219.5 198.625V197.125H222.5V198.625C222.5 198.625 222.5 200.125 221 200.125Z" fill="#EDB405"/>
<path d="M223.625 194.013C223.625 191.8 218.375 192.588 218.375 194.013V195.663C218.375 197.088 219.537 198.25 221 198.25C222.463 198.25 223.625 197.088 223.625 195.663V194.013Z" fill="#FFCA28"/>
<path d="M221 191.125C219.162 191.125 218 192.738 218 194.2V194.875L218.75 195.625V194.125L222.2 193L223.25 194.125V195.625L224 194.875V194.575C224 193.375 223.7 192.025 222.2 191.725L221.9 191.125H221Z" fill="#19B9FD"/>
<path d="M221.75 195.25C221.75 195.025 221.9 194.875 222.125 194.875C222.35 194.875 222.5 195.025 222.5 195.25C222.5 195.475 222.35 195.625 222.125 195.625C221.9 195.625 221.75 195.475 221.75 195.25ZM219.5 195.25C219.5 195.475 219.65 195.625 219.875 195.625C220.1 195.625 220.25 195.475 220.25 195.25C220.25 195.025 220.1 194.875 219.875 194.875C219.65 194.875 219.5 195.025 219.5 195.25Z" fill="#784719"/>
<path d="M240 188.5C238.011 188.5 236.103 189.29 234.697 190.697C233.29 192.103 232.5 194.011 232.5 196C232.5 197.989 233.29 199.897 234.697 201.303C236.103 202.71 238.011 203.5 240 203.5C241.989 203.5 243.897 202.71 245.303 201.303C246.71 199.897 247.5 197.989 247.5 196C247.5 194.011 246.71 192.103 245.303 190.697C243.897 189.29 241.989 188.5 240 188.5Z" fill="#EDE7F6"/>
<path d="M237.75 193.844H242.25V198.906H237.75V193.844Z" fill="#4E342E"/>
<path d="M240 203.5C241.681 203.5 243.227 202.941 244.477 202.007C244.247 199.24 241.5 198.625 241.5 198.625H238.5C238.5 198.625 235.752 199.23 235.522 202.007C236.773 202.941 238.319 203.5 240 203.5Z" fill="#EDB405"/>
<path d="M240 200.031C239.46 200.031 238.688 198.625 238.688 198.625V196.75H241.312V198.625C241.312 198.625 240.54 200.031 240 200.031Z" fill="#C16E14"/>
<path d="M242.625 195.625C242.625 197.023 241.398 198.25 240 198.25C238.602 198.25 237.375 197.023 237.375 195.625V193.375C237.375 191.977 242.625 191.228 242.625 193.375V195.625ZM240 200.5C241.088 200.5 241.312 198.625 241.312 198.625C241.312 198.625 240.614 199.75 240 199.75C239.386 199.75 238.688 198.625 238.688 198.625C238.688 198.625 238.912 200.5 240 200.5Z" fill="#E5852E"/>
<path d="M240.75 195.25C240.75 195.043 240.918 194.875 241.125 194.875C241.332 194.875 241.5 195.043 241.5 195.25C241.5 195.457 241.332 195.625 241.125 195.625C240.918 195.625 240.75 195.457 240.75 195.25ZM238.5 195.25C238.5 195.457 238.668 195.625 238.875 195.625C239.082 195.625 239.25 195.457 239.25 195.25C239.25 195.043 239.082 194.875 238.875 194.875C238.668 194.875 238.5 195.043 238.5 195.25Z" fill="#212121"/>
<path d="M240 191.125C238.291 191.125 235.875 191.908 235.875 197.5L237.75 198.906V194.875L241.125 193L242.25 194.5V199L244.125 197.125C244.125 195.993 244.029 191.688 241.125 191.688L240.75 191.125H240Z" fill="black"/>
<path d="M259 188.5C257.011 188.5 255.103 189.29 253.697 190.697C252.29 192.103 251.5 194.011 251.5 196C251.5 197.989 252.29 199.897 253.697 201.303C255.103 202.71 257.011 203.5 259 203.5C260.989 203.5 262.897 202.71 264.303 201.303C265.71 199.897 266.5 197.989 266.5 196C266.5 194.011 265.71 192.103 264.303 190.697C262.897 189.29 260.989 188.5 259 188.5Z" fill="#EDE7F6"/>
<path d="M256.75 193.844H261.25V198.906H256.75V193.844Z" fill="#4E342E"/>
<path d="M259 203.5C260.681 203.5 262.227 202.941 263.477 202.007C263.247 199.24 260.5 198.625 260.5 198.625H257.5C257.5 198.625 254.752 199.23 254.522 202.007C255.773 202.941 257.319 203.5 259 203.5Z" fill="#50B86D"/>
<path d="M259 200.031C258.46 200.031 257.688 198.625 257.688 198.625V196.75H260.312V198.625C260.312 198.625 259.54 200.031 259 200.031Z" fill="#C49D7A"/>
<path d="M261.625 195.625C261.625 197.023 260.398 198.25 259 198.25C257.602 198.25 256.375 197.023 256.375 195.625V193.375C256.375 191.977 261.625 191.228 261.625 193.375V195.625ZM259 200.5C260.088 200.5 260.312 198.625 260.312 198.625C260.312 198.625 259.614 199.75 259 199.75C258.386 199.75 257.688 198.625 257.688 198.625C257.688 198.625 257.912 200.5 259 200.5Z" fill="#FFD4AD"/>
<path d="M259.75 195.25C259.75 195.043 259.918 194.875 260.125 194.875C260.332 194.875 260.5 195.043 260.5 195.25C260.5 195.457 260.332 195.625 260.125 195.625C259.918 195.625 259.75 195.457 259.75 195.25ZM257.5 195.25C257.5 195.457 257.668 195.625 257.875 195.625C258.082 195.625 258.25 195.457 258.25 195.25C258.25 195.043 258.082 194.875 257.875 194.875C257.668 194.875 257.5 195.043 257.5 195.25Z" fill="#494949"/>
<path d="M259 191.125C257.291 191.125 254.875 191.908 254.875 197.5L256.75 198.906V194.875L260.125 193L261.25 194.5V199L263.125 197.125C263.125 195.993 263.029 191.688 260.125 191.688L259.75 191.125H259Z" fill="#F6F890"/>
<path d="M278 188.5C276.011 188.5 274.103 189.29 272.697 190.697C271.29 192.103 270.5 194.011 270.5 196C270.5 197.989 271.29 199.897 272.697 201.303C274.103 202.71 276.011 203.5 278 203.5C279.989 203.5 281.897 202.71 283.303 201.303C284.71 199.897 285.5 197.989 285.5 196C285.5 194.011 284.71 192.103 283.303 190.697C281.897 189.29 279.989 188.5 278 188.5Z" fill="#EDE7F6"/>
<path d="M278 203.5C279.687 203.5 281.225 202.938 282.462 202C282.237 199.15 279.387 198.625 279.387 198.625L278 198.925L276.612 198.625C276.612 198.625 273.762 199.15 273.537 202C274.775 202.938 276.312 203.5 278 203.5Z" fill="#FF5722"/>
<path d="M278 200.875C279.163 200.875 280.1 200.013 280.213 198.888C279.875 198.738 279.613 198.663 279.463 198.625C279.463 199.45 278.788 200.088 277.963 200.088C277.138 200.088 276.463 199.412 276.463 198.625C276.313 198.663 276.05 198.738 275.713 198.888C275.9 200.013 276.838 200.875 278 200.875Z" fill="#EFC20B"/>
<path d="M281 195.438C281 195.738 280.738 196 280.438 196C280.137 196 279.875 195.738 279.875 195.438C279.875 195.137 280.137 194.875 280.438 194.875C280.738 194.875 281 195.137 281 195.438ZM276.125 195.438C276.125 195.137 275.863 194.875 275.562 194.875C275.262 194.875 275 195.137 275 195.438C275 195.738 275.262 196 275.562 196C275.863 196 276.125 195.738 276.125 195.438Z" fill="#B55D0D"/>
<path d="M278 200.125C276.5 200.125 276.5 198.625 276.5 198.625V197.125H279.5V198.625C279.5 198.625 279.5 200.125 278 200.125Z" fill="#5A2B00"/>
<path d="M280.625 194.013C280.625 191.8 275.375 192.588 275.375 194.013V195.663C275.375 197.088 276.537 198.25 278 198.25C279.463 198.25 280.625 197.088 280.625 195.663V194.013Z" fill="#753800"/>
<path d="M278 191.125C276.162 191.125 275 192.738 275 194.2V194.875L275.75 195.625V194.125L279.2 193L280.25 194.125V195.625L281 194.875V194.575C281 193.375 280.7 192.025 279.2 191.725L278.9 191.125H278Z" fill="black"/>
<path d="M278.75 195.25C278.75 195.025 278.9 194.875 279.125 194.875C279.35 194.875 279.5 195.025 279.5 195.25C279.5 195.475 279.35 195.625 279.125 195.625C278.9 195.625 278.75 195.475 278.75 195.25ZM276.5 195.25C276.5 195.475 276.65 195.625 276.875 195.625C277.1 195.625 277.25 195.475 277.25 195.25C277.25 195.025 277.1 194.875 276.875 194.875C276.65 194.875 276.5 195.025 276.5 195.25Z" fill="#212121"/>
<path d="M213.96 173V180H214.8V173H213.96ZM218.614 175.26C218.254 175.26 217.954 175.34 217.714 175.5C217.474 175.66 217.304 175.84 217.184 176.03V175.38H216.404V180H217.244V176.82C217.294 176.74 217.354 176.65 217.434 176.55C217.504 176.46 217.584 176.38 217.684 176.3C217.784 176.22 217.894 176.16 218.014 176.11C218.134 176.07 218.274 176.04 218.434 176.04C218.574 176.04 218.704 176.07 218.834 176.11C218.964 176.15 219.074 176.22 219.174 176.31C219.274 176.41 219.354 176.52 219.414 176.66C219.474 176.8 219.504 176.97 219.504 177.17V180H220.344V177.03C220.344 176.75 220.294 176.49 220.204 176.27C220.104 176.05 219.984 175.87 219.824 175.72C219.664 175.57 219.474 175.46 219.264 175.38C219.054 175.3 218.834 175.26 218.614 175.26ZM221.968 175.38H221.048L223.358 180.2L225.668 175.38H224.808L223.388 178.51L221.968 175.38ZM229.785 177.29H226.885C226.895 177.17 226.935 177.04 226.995 176.89C227.055 176.75 227.145 176.61 227.265 176.49C227.385 176.37 227.525 176.26 227.705 176.17C227.885 176.09 228.095 176.04 228.345 176.04C228.585 176.04 228.785 176.08 228.965 176.16C229.145 176.24 229.285 176.35 229.405 176.47C229.525 176.6 229.615 176.74 229.675 176.88C229.735 177.03 229.775 177.17 229.785 177.29ZM228.345 175.26C227.995 175.26 227.675 175.33 227.395 175.45C227.115 175.58 226.875 175.75 226.675 175.97C226.475 176.19 226.315 176.45 226.205 176.74C226.095 177.04 226.045 177.35 226.045 177.67C226.045 178.02 226.105 178.34 226.225 178.64C226.345 178.94 226.505 179.2 226.715 179.42C226.925 179.64 227.175 179.82 227.475 179.94C227.765 180.06 228.085 180.12 228.425 180.12C228.645 180.12 228.855 180.1 229.055 180.05C229.245 180 229.425 179.93 229.585 179.84C229.745 179.76 229.895 179.66 230.025 179.55C230.155 179.44 230.275 179.33 230.375 179.21L229.845 178.66C229.705 178.84 229.525 178.99 229.285 179.13C229.045 179.27 228.775 179.34 228.455 179.34C228.235 179.34 228.025 179.31 227.845 179.23C227.655 179.16 227.495 179.06 227.355 178.93C227.215 178.81 227.095 178.66 227.015 178.5C226.925 178.34 226.875 178.17 226.865 177.99H230.595C230.595 177.94 230.605 177.89 230.605 177.85V177.72C230.605 177.35 230.545 177.01 230.435 176.71C230.315 176.41 230.165 176.15 229.965 175.93C229.765 175.72 229.525 175.56 229.245 175.44C228.965 175.32 228.665 175.26 228.345 175.26ZM231.84 178.61L231.26 179.15C231.34 179.27 231.45 179.39 231.59 179.5C231.72 179.62 231.87 179.72 232.04 179.81C232.2 179.91 232.39 179.98 232.59 180.04C232.79 180.1 233.01 180.12 233.25 180.12C233.47 180.12 233.69 180.1 233.91 180.04C234.13 179.98 234.32 179.9 234.49 179.78C234.66 179.67 234.8 179.53 234.91 179.35C235.01 179.17 235.07 178.96 235.07 178.72C235.07 178.48 235.01 178.28 234.91 178.12C234.8 177.96 234.67 177.82 234.51 177.71C234.35 177.61 234.17 177.52 233.98 177.46C233.79 177.4 233.61 177.35 233.44 177.31C233.3 177.28 233.16 177.25 233.03 177.21C232.89 177.17 232.77 177.13 232.67 177.08C232.56 177.03 232.47 176.97 232.41 176.89C232.35 176.82 232.32 176.73 232.32 176.62C232.32 176.47 232.39 176.33 232.54 176.21C232.68 176.09 232.9 176.02 233.18 176.02C233.46 176.02 233.69 176.08 233.89 176.19C234.08 176.3 234.24 176.41 234.36 176.53L234.91 175.96C234.74 175.79 234.51 175.63 234.22 175.48C233.93 175.34 233.59 175.26 233.2 175.26C232.94 175.26 232.7 175.3 232.5 175.37C232.29 175.45 232.11 175.55 231.96 175.67C231.81 175.8 231.7 175.95 231.62 176.12C231.54 176.29 231.5 176.47 231.5 176.65C231.5 176.89 231.56 177.1 231.68 177.26C231.8 177.43 231.94 177.57 232.12 177.67C232.29 177.77 232.47 177.85 232.67 177.91C232.86 177.97 233.03 178.02 233.19 178.05C233.31 178.08 233.43 178.11 233.55 178.14C233.67 178.18 233.79 178.22 233.89 178.27C233.99 178.33 234.08 178.39 234.14 178.47C234.2 178.55 234.24 178.65 234.24 178.75C234.24 178.87 234.2 178.96 234.14 179.04C234.08 179.12 234 179.18 233.9 179.23C233.8 179.28 233.7 179.31 233.58 179.33C233.46 179.35 233.35 179.36 233.25 179.36C233.07 179.36 232.91 179.34 232.77 179.29C232.63 179.25 232.5 179.19 232.38 179.11C232.26 179.04 232.15 178.96 232.06 178.87C231.97 178.79 231.9 178.7 231.84 178.61ZM235.711 175.38V176.14H236.611V178.67C236.611 178.93 236.651 179.15 236.731 179.33C236.811 179.51 236.921 179.66 237.061 179.78C237.191 179.9 237.341 179.98 237.511 180.04C237.671 180.1 237.841 180.12 238.021 180.12C238.141 180.12 238.281 180.11 238.431 180.07C238.581 180.03 238.761 179.96 238.961 179.84L238.651 179.15C238.561 179.21 238.471 179.25 238.391 179.29C238.301 179.33 238.201 179.34 238.091 179.34C237.891 179.34 237.731 179.28 237.621 179.16C237.501 179.04 237.451 178.86 237.451 178.63V176.14H238.891V175.38H237.451V173.97H236.611V175.38H235.711ZM241.93 179.34C241.69 179.34 241.48 179.3 241.29 179.21C241.1 179.13 240.94 179.01 240.81 178.86C240.67 178.71 240.57 178.53 240.5 178.33C240.42 178.13 240.39 177.92 240.39 177.69C240.39 177.47 240.42 177.25 240.5 177.05C240.57 176.85 240.67 176.68 240.81 176.53C240.94 176.38 241.1 176.26 241.29 176.17C241.48 176.09 241.69 176.04 241.93 176.04C242.16 176.04 242.37 176.09 242.56 176.17C242.75 176.26 242.91 176.38 243.05 176.53C243.18 176.68 243.28 176.85 243.36 177.05C243.43 177.25 243.47 177.47 243.47 177.69C243.47 177.92 243.43 178.13 243.36 178.33C243.28 178.53 243.18 178.71 243.05 178.86C242.91 179.01 242.75 179.13 242.56 179.21C242.37 179.3 242.16 179.34 241.93 179.34ZM241.93 175.26C241.59 175.26 241.27 175.33 240.98 175.45C240.69 175.58 240.44 175.75 240.23 175.97C240.01 176.19 239.85 176.44 239.73 176.74C239.61 177.04 239.55 177.35 239.55 177.69C239.55 178.03 239.61 178.35 239.73 178.65C239.85 178.95 240.01 179.2 240.23 179.42C240.44 179.64 240.69 179.81 240.98 179.93C241.27 180.06 241.59 180.12 241.93 180.12C242.27 180.12 242.58 180.06 242.87 179.93C243.16 179.81 243.41 179.64 243.63 179.42C243.84 179.2 244.01 178.95 244.13 178.65C244.25 178.35 244.31 178.03 244.31 177.69C244.31 177.35 244.25 177.04 244.13 176.74C244.01 176.44 243.84 176.19 243.63 175.97C243.41 175.75 243.16 175.58 242.87 175.45C242.58 175.33 242.27 175.26 241.93 175.26ZM247.351 175.26C247.191 175.26 247.041 175.29 246.911 175.33C246.771 175.38 246.651 175.44 246.551 175.52C246.441 175.6 246.341 175.68 246.261 175.78C246.181 175.88 246.111 175.99 246.051 176.09V175.38H245.271V180H246.111V176.82C246.151 176.74 246.201 176.65 246.261 176.55C246.321 176.46 246.401 176.38 246.491 176.3C246.581 176.23 246.681 176.17 246.801 176.12C246.911 176.07 247.041 176.04 247.191 176.04C247.261 176.04 247.341 176.05 247.441 176.07C247.541 176.09 247.621 176.11 247.701 176.14L248.011 175.38C247.901 175.34 247.791 175.31 247.671 175.29C247.551 175.27 247.451 175.26 247.351 175.26ZM248.949 178.61L248.369 179.15C248.449 179.27 248.559 179.39 248.699 179.5C248.829 179.62 248.979 179.72 249.149 179.81C249.309 179.91 249.499 179.98 249.699 180.04C249.899 180.1 250.119 180.12 250.359 180.12C250.579 180.12 250.799 180.1 251.019 180.04C251.239 179.98 251.429 179.9 251.599 179.78C251.769 179.67 251.909 179.53 252.019 179.35C252.119 179.17 252.179 178.96 252.179 178.72C252.179 178.48 252.119 178.28 252.019 178.12C251.909 177.96 251.779 177.82 251.619 177.71C251.459 177.61 251.279 177.52 251.089 177.46C250.899 177.4 250.719 177.35 250.549 177.31C250.409 177.28 250.269 177.25 250.139 177.21C249.999 177.17 249.879 177.13 249.779 177.08C249.669 177.03 249.579 176.97 249.519 176.89C249.459 176.82 249.429 176.73 249.429 176.62C249.429 176.47 249.499 176.33 249.649 176.21C249.789 176.09 250.009 176.02 250.289 176.02C250.569 176.02 250.799 176.08 250.999 176.19C251.189 176.3 251.349 176.41 251.469 176.53L252.019 175.96C251.849 175.79 251.619 175.63 251.329 175.48C251.039 175.34 250.699 175.26 250.309 175.26C250.049 175.26 249.809 175.3 249.609 175.37C249.399 175.45 249.219 175.55 249.069 175.67C248.919 175.8 248.809 175.95 248.729 176.12C248.649 176.29 248.609 176.47 248.609 176.65C248.609 176.89 248.669 177.1 248.789 177.26C248.909 177.43 249.049 177.57 249.229 177.67C249.399 177.77 249.579 177.85 249.779 177.91C249.969 177.97 250.139 178.02 250.299 178.05C250.419 178.08 250.539 178.11 250.659 178.14C250.779 178.18 250.899 178.22 250.999 178.27C251.099 178.33 251.189 178.39 251.249 178.47C251.309 178.55 251.349 178.65 251.349 178.75C251.349 178.87 251.309 178.96 251.249 179.04C251.189 179.12 251.109 179.18 251.009 179.23C250.909 179.28 250.809 179.31 250.689 179.33C250.569 179.35 250.459 179.36 250.359 179.36C250.179 179.36 250.019 179.34 249.879 179.29C249.739 179.25 249.609 179.19 249.489 179.11C249.369 179.04 249.259 178.96 249.169 178.87C249.079 178.79 249.009 178.7 248.949 178.61Z" fill="black"/>
<path d="M153.25 144.75C153.25 144.75 152 149.75 147 149.75C142 149.75 140.75 144.75 140.75 144.75C140.75 144.75 127 147.233 127 161H167C167 147.281 153.25 144.75 153.25 144.75Z" fill="#333333"/>
<path d="M147 152.25C140.75 152.25 140.75 144.75 140.75 144.75V137.25H153.25V144.75C153.25 144.75 153.25 152.25 147 152.25Z" fill="#FF9800"/>
<path d="M160.75 129.75C160.75 131.131 159.631 132.25 158.25 132.25C156.869 132.25 155.75 131.131 155.75 129.75C155.75 128.369 156.869 127.25 158.25 127.25C159.631 127.25 160.75 128.369 160.75 129.75ZM138.25 129.75C138.25 131.131 137.131 132.25 135.75 132.25C134.369 132.25 133.25 131.131 133.25 129.75C133.25 128.369 134.369 127.25 135.75 127.25C137.131 127.25 138.25 128.369 138.25 129.75Z" fill="#FFA726"/>
<path d="M158.25 122.25C158.25 112.706 135.75 116.036 135.75 122.25V131C135.75 137.214 140.786 142.25 147 142.25C153.214 142.25 158.25 137.214 158.25 131V122.25Z" fill="#FFB74D"/>
<path d="M147 111C139.406 111 134.5 117.156 134.5 124.75V127.605L137 129.75V123.5L152 118.5L157 123.5V129.75L159.5 127.574V124.75C159.5 119.719 158.202 114.731 152 113.5L150.75 111H147Z" fill="#424242"/>
<path d="M150.75 129.75C150.75 130.44 151.31 131 152 131C152.69 131 153.25 130.44 153.25 129.75C153.25 129.06 152.69 128.5 152 128.5C151.31 128.5 150.75 129.06 150.75 129.75ZM140.75 129.75C140.75 130.44 141.31 131 142 131C142.69 131 143.25 130.44 143.25 129.75C143.25 129.06 142.69 128.5 142 128.5C141.31 128.5 140.75 129.06 140.75 129.75Z" fill="#784719"/>
<path d="M147 152.25C153.25 152.25 155.431 147.338 155.688 145.465C154.242 144.935 153.25 144.75 153.25 144.75C153.25 144.75 152 149.75 147 149.75C142 149.75 140.75 144.75 140.75 144.75C140.75 144.75 139.757 144.933 138.31 145.457C138.565 147.326 140.75 152.25 147 152.25Z" fill="#01579B"/>
<line x1="126.34" y1="160.367" x2="86.3395" y2="197.367" stroke="#CCCCCC"/>
<line x1="204.672" y1="193.378" x2="166.672" y2="160.378" stroke="#CCCCCC"/>
<line x1="135.653" y1="117.36" x2="106.653" y2="89.3597" stroke="#CCCCCC"/>
<line y1="-0.5" x2="40.3113" y2="-0.5" transform="matrix(0.719401 -0.694595 -0.694595 -0.719401 160 117)" stroke="#CCCCCC"/>
</svg>
