<svg width="388" height="296" viewBox="0 0 388 296" fill="none" xmlns="http://www.w3.org/2000/svg">
<rect x="249.58" width="41.2984" height="271.193" rx="20.6492" transform="rotate(45 249.58 0)" fill="#BFEBFE"/>
<rect x="249.58" y="55.0645" width="41.2984" height="299.436" rx="20.6492" transform="rotate(45 249.58 55.0645)" fill="#BFEBFE"/>
<rect x="303.967" y="55.0645" width="41.2984" height="299.436" rx="20.6492" transform="rotate(45 303.967 55.0645)" fill="#BFEBFE"/>
<rect x="358.358" y="55.0645" width="41.2984" height="299.436" rx="20.6492" transform="rotate(45 358.358 55.0645)" fill="#BFEBFE"/>
<rect x="191.762" width="41.2984" height="271.193" rx="20.6492" transform="rotate(45 191.762 0)" fill="#BFEBFE"/>
<path d="M252.167 278H119.833V104H210.793L252.167 145.374V278Z" fill="white" stroke="#CCCCCC"/>
<path d="M246.417 149.333H206.833V109.75L246.417 149.333Z" fill="#EEEFF0"/>
<path d="M152.667 178.5H223.5V186.833H152.667V178.5ZM152.667 195.167H206.833V203.5H152.667V195.167ZM152.667 211.833H223.5V220.167H152.667V211.833ZM152.667 228.5H206.833V236.833H152.667V228.5Z" fill="#CCCCCC"/>
<path d="M126.098 83.786C124.821 85.146 123.012 86 121 86C117.134 86 114 82.866 114 79C114 75.134 117.134 72 121 72V59C110.002 59 101 68.002 101 79C101 89.998 110.002 99 121 99C126.777 99 131.998 96.556 135.557 92.668L126.098 83.786Z" fill="#7AEF1F"/>
<path d="M121 59V72C124.866 72 128 75.134 128 79H141C141 68.002 131.998 59 121 59Z" fill="#2CCF81"/>
<path d="M128 79C128 81.232 126.952 83.216 125.324 84.497L133.333 94.723C137.995 91.062 141 85.387 141 79H128Z" fill="#56AF0F"/>
<g clip-path="url(#clip0)">
<path d="M95.0385 175.946L80.0699 189.806C79.6108 190.231 79.5832 190.949 80.0083 191.408L82.2775 193.859C82.6609 194.273 83.2986 194.394 83.7694 194.082C84.3685 193.685 84.4496 192.868 83.9815 192.363L83.1707 191.487C82.7679 191.052 82.7941 190.373 83.229 189.97L87.431 186.079L100.562 200.261C100.965 200.696 100.938 201.375 100.503 201.777L98.8403 203.317C98.4262 203.701 98.3046 204.34 98.6177 204.81C99.0157 205.41 99.8315 205.489 100.336 205.021L108.608 197.362C109.022 196.979 109.144 196.339 108.831 195.869C108.433 195.269 107.617 195.191 107.112 195.658L105.405 197.239C104.97 197.642 104.291 197.616 103.888 197.181L90.7574 182.999L94.9594 179.109C95.3943 178.706 96.0734 178.732 96.4761 179.167L97.2461 179.999C97.6296 180.413 98.2673 180.534 98.738 180.222C99.3372 179.825 99.4183 179.008 98.9501 178.503L96.6401 176.008C96.2151 175.549 95.4976 175.521 95.0385 175.946Z" fill="black"/>
</g>
<g clip-path="url(#clip1)">
<path d="M304.25 160.627L283.358 172.44C281.916 173.256 280.086 172.748 279.27 171.305L269.672 154.331C268.856 152.889 269.365 151.059 270.807 150.243L291.698 138.43C293.14 137.614 294.971 138.123 295.786 139.565L305.384 156.539C306.2 157.981 305.692 159.812 304.25 160.627Z" fill="#FFC107"/>
<path d="M289.798 147.259C290.41 148.341 291.782 148.722 292.864 148.11C293.946 147.498 294.327 146.126 293.715 145.044C293.103 143.962 291.731 143.581 290.649 144.193C289.567 144.805 289.186 146.177 289.798 147.259Z" fill="#FFF8E1"/>
<path d="M281.964 151.689L280.689 166.195L295.052 158.074L281.964 151.689Z" fill="#D85700"/>
<path d="M291.36 151.545L289.829 161.027L300.275 155.12L291.36 151.545Z" fill="#EF7E03"/>
</g>
<defs>
<clipPath id="clip0">
<rect x="72" y="191.1" width="34" height="34" transform="rotate(-42.7977 72 191.1)" fill="white"/>
</clipPath>
<clipPath id="clip1">
<rect x="263" y="148.626" width="36" height="36" transform="rotate(-29.4862 263 148.626)" fill="white"/>
</clipPath>
</defs>
</svg>
