<svg width="46" height="41" viewBox="0 0 46 41" fill="none" xmlns="http://www.w3.org/2000/svg">
<rect width="46" height="41" rx="4" fill="url(#paint0_linear)"/>
<path d="M27.0833 23.3333H26.1617L25.835 23.0183C27.0179 21.6464 27.668 19.8948 27.6667 18.0833C27.6667 16.5835 27.2219 15.1173 26.3886 13.8703C25.5554 12.6232 24.371 11.6512 22.9854 11.0773C21.5997 10.5033 20.0749 10.3531 18.6039 10.6457C17.1329 10.9383 15.7817 11.6606 14.7211 12.7211C13.6606 13.7817 12.9383 15.1329 12.6457 16.6039C12.3531 18.0749 12.5033 19.5997 13.0773 20.9854C13.6512 22.371 14.6232 23.5554 15.8703 24.3886C17.1173 25.2219 18.5835 25.6667 20.0833 25.6667C21.9617 25.6667 23.6883 24.9783 25.0183 23.835L25.3333 24.1617V25.0833L31.1667 30.905L32.905 29.1667L27.0833 23.3333ZM20.0833 23.3333C17.1783 23.3333 14.8333 20.9883 14.8333 18.0833C14.8333 15.1783 17.1783 12.8333 20.0833 12.8333C22.9883 12.8333 25.3333 15.1783 25.3333 18.0833C25.3333 20.9883 22.9883 23.3333 20.0833 23.3333Z" fill="white"/>
<defs>
<linearGradient id="paint0_linear" x1="23" y1="0" x2="23" y2="41" gradientUnits="userSpaceOnUse">
<stop stop-color="#2E7CFF"/>
<stop offset="1" stop-color="#1B63DC"/>
</linearGradient>
</defs>
</svg>
