<svg width="16" height="16" viewBox="0 0 16 16" fill="none" xmlns="http://www.w3.org/2000/svg">
<path d="M2.66683 2.86816C1.98416 2.86816 1.42712 3.38325 1.34912 4.04525L1.33548 5.20142L3.00015 5.5V4.2014L8.00015 7.5L13.0002 4.2014V5.5L14.6512 4.04523C14.5732 3.38323 14.0162 2.86816 13.3335 2.86816H2.66683ZM1.33548 5.20142L1.3335 12.2015C1.3335 12.9382 1.93016 13.5348 2.66683 13.5348H8.11475L14.6668 6.98275L14.6512 4.04523L13.0002 5.5L8.00015 8.86816L3.00015 5.5L1.33548 5.20142ZM14.8049 8.86816C14.7196 8.86816 14.6342 8.90082 14.5692 8.96582L13.9025 9.63249L15.2358 10.9658L15.9025 10.2992C16.0325 10.1692 16.0325 9.9578 15.9025 9.8278L15.0405 8.96582C14.9752 8.90082 14.8901 8.86816 14.8049 8.86816ZM13.4312 10.1038L10.0002 13.5348V14.8682H11.3335L14.7645 11.4372L13.4312 10.1038Z" fill="#666666"/>
</svg>
