<svg width="16" height="16" viewBox="0 0 16 16" fill="none" xmlns="http://www.w3.org/2000/svg">
<path d="M14.6668 13.3333H12.0002V15.3333L8.66683 12.3333L12.0002 9.33332V11.3333H14.6668V13.3333ZM13.3335 2.66666H2.66683C2.31321 2.66666 1.97407 2.80713 1.72402 3.05718C1.47397 3.30723 1.3335 3.64637 1.3335 3.99999V12C1.3335 12.3536 1.47397 12.6927 1.72402 12.9428C1.97407 13.1928 2.31321 13.3333 2.66683 13.3333H7.56683C7.41126 12.9061 7.33227 12.4547 7.3335 12C7.33444 11.1411 7.61184 10.3053 8.12464 9.61625C8.63745 8.92722 9.35842 8.42155 10.1809 8.17406C11.0034 7.92656 11.8837 7.95039 12.6916 8.24201C13.4995 8.53363 14.192 9.07756 14.6668 9.79332V3.99999C14.6668 3.64637 14.5264 3.30723 14.2763 3.05718C14.0263 2.80713 13.6871 2.66666 13.3335 2.66666ZM13.3335 5.33332L8.00016 8.66666L2.66683 5.33332V3.99999L8.00016 7.33332L13.3335 3.99999V5.33332Z" fill="#666666"/>
</svg>
