<svg width="16" height="16" viewBox="0 0 16 16" fill="none" xmlns="http://www.w3.org/2000/svg">
<path d="M14.6668 13.3332H12.0002V15.3332L8.66683 12.3332L12.0002 9.33317V11.3332H14.6668V13.3332ZM13.3335 2.6665H2.66683C2.31321 2.6665 1.97407 2.80698 1.72402 3.05703C1.47397 3.30708 1.3335 3.64622 1.3335 3.99984V11.9998C1.3335 12.3535 1.47397 12.6926 1.72402 12.9426C1.97407 13.1927 2.31321 13.3332 2.66683 13.3332H7.56683C7.41126 12.9059 7.33227 12.4545 7.3335 11.9998C7.33444 11.1409 7.61184 10.3051 8.12464 9.6161C8.63745 8.92706 9.35842 8.4214 10.1809 8.1739C11.0034 7.92641 11.8837 7.95024 12.6916 8.24186C13.4995 8.53348 14.192 9.07741 14.6668 9.79317V3.99984C14.6668 3.64622 14.5264 3.30708 14.2763 3.05703C14.0263 2.80698 13.6871 2.6665 13.3335 2.6665ZM13.3335 5.33317L8.00016 8.6665L2.66683 5.33317V3.99984L8.00016 7.33317L13.3335 3.99984V5.33317Z" fill="#19B9FD"/>
</svg>
