<svg width="16" height="16" viewBox="0 0 16 16" fill="none" xmlns="http://www.w3.org/2000/svg">
<path d="M8.00016 1.3335C4.32616 1.3335 1.3335 4.32616 1.3335 8.00016C1.3335 11.6742 4.32616 14.6668 8.00016 14.6668C11.6742 14.6668 14.6668 11.6742 14.6668 8.00016C14.6668 4.32616 11.6742 1.3335 8.00016 1.3335ZM8.00016 2.66683C10.9536 2.66683 13.3335 5.04675 13.3335 8.00016C13.3335 10.9536 10.9536 13.3335 8.00016 13.3335C5.04675 13.3335 2.66683 10.9536 2.66683 8.00016C2.66683 5.04675 5.04675 2.66683 8.00016 2.66683ZM7.3335 4.00016V8.2762L10.1955 11.1382L11.1382 10.1955L8.66683 7.72412V4.00016H7.3335Z" fill="#19B9FD"/>
</svg>
