<svg width="16" height="16" viewBox="0 0 16 16" fill="none" xmlns="http://www.w3.org/2000/svg">
<path d="M8.00016 1.33334C4.32616 1.33334 1.3335 4.32601 1.3335 8.00001C1.3335 11.674 4.32616 14.6667 8.00016 14.6667C11.6742 14.6667 14.6668 11.674 14.6668 8.00001C14.6668 4.32601 11.6742 1.33334 8.00016 1.33334ZM8.00016 2.66668C10.9536 2.66668 13.3335 5.0466 13.3335 8.00001C13.3335 10.9534 10.9536 13.3333 8.00016 13.3333C5.04675 13.3333 2.66683 10.9534 2.66683 8.00001C2.66683 5.0466 5.04675 2.66668 8.00016 2.66668ZM7.3335 4.00001V8.27605L10.1955 11.138L11.1382 10.1953L8.66683 7.72397V4.00001H7.3335Z" fill="#666666"/>
</svg>
