<svg width="34" height="34" viewBox="0 0 34 34" fill="none" xmlns="http://www.w3.org/2000/svg">
<path d="M26.2082 31.875H7.7915C6.6178 31.875 5.6665 30.9237 5.6665 29.75V4.25C5.6665 3.07629 6.6178 2.125 7.7915 2.125H21.2498L28.3332 9.20833V29.75C28.3332 30.9237 27.3819 31.875 26.2082 31.875Z" fill="#43A047"/>
<path d="M28.3333 9.20833H21.25V2.125L28.3333 9.20833Z" fill="#C8E6C9"/>
<path d="M21.25 9.20834L28.3333 16.2917V9.20834H21.25Z" fill="#2E7D32"/>
<path d="M21.9583 16.2917H12.0417H10.625V17.7083V19.125V20.5417V21.9583V23.375V24.7917V26.2083H23.375V24.7917V23.375V21.9583V20.5417V19.125V17.7083V16.2917H21.9583ZM12.0417 17.7083H14.875V19.125H12.0417V17.7083ZM12.0417 20.5417H14.875V21.9583H12.0417V20.5417ZM12.0417 23.375H14.875V24.7917H12.0417V23.375ZM21.9583 24.7917H16.2917V23.375H21.9583V24.7917ZM21.9583 21.9583H16.2917V20.5417H21.9583V21.9583ZM21.9583 19.125H16.2917V17.7083H21.9583V19.125Z" fill="#E8F5E9"/>
</svg>
