<svg width="34" height="34" viewBox="0 0 34 34" fill="none" xmlns="http://www.w3.org/2000/svg">
<path d="M30.6797 0H3.32031C1.48655 0 0 1.48655 0 3.32031V30.6797C0 32.5134 1.48655 34 3.32031 34H30.6797C32.5134 34 34 32.5134 34 30.6797V3.32031C34 1.48655 32.5134 0 30.6797 0Z" fill="url(#paint0_linear)"/>
<path d="M27.9862 4.42H20.8037C19.9235 4.42 19.21 5.13354 19.21 6.01375V17.7012C19.21 18.5815 19.9235 19.295 20.8037 19.295H27.9862C28.8664 19.295 29.58 18.5815 29.58 17.7012V6.01375C29.58 5.13354 28.8664 4.42 27.9862 4.42Z" fill="white"/>
<path d="M13.1967 4.42H6.01416C5.13396 4.42 4.42041 5.13354 4.42041 6.01375V26.2012C4.42041 27.0815 5.13396 27.795 6.01416 27.795H13.1967C14.0769 27.795 14.7904 27.0815 14.7904 26.2012V6.01375C14.7904 5.13354 14.0769 4.42 13.1967 4.42Z" fill="white"/>
<defs>
<linearGradient id="paint0_linear" x1="17" y1="0" x2="17" y2="34" gradientUnits="userSpaceOnUse">
<stop stop-color="#0091E6"/>
<stop offset="1" stop-color="#0079BF"/>
</linearGradient>
</defs>
</svg>
