<svg width="34" height="34" viewBox="0 0 34 34" fill="none" xmlns="http://www.w3.org/2000/svg">
<path d="M17.0004 34C26.3889 34 34 26.3884 34 17C34 7.61014 26.3897 0 17.0004 0C7.61107 0 0 7.61014 0 17C0 26.3884 7.61107 34 17.0004 34Z" fill="#1FC0E7"/>
<path d="M8.28315 16.9957L11.1784 14.0868C11.2744 13.9901 11.328 13.8602 11.328 13.7226C11.328 13.4355 11.0953 13.2028 10.809 13.2028C10.6692 13.2028 10.5385 13.2572 10.4403 13.3577L7.54648 16.2538L4.64137 13.3524C4.54315 13.2557 4.41319 13.2028 4.27493 13.2028C3.98781 13.2028 3.75586 13.4355 3.75586 13.7219C3.75586 13.8617 3.81177 13.9939 3.9115 14.0921L6.80679 16.9912L3.91301 19.8925C3.81177 19.9938 3.75586 20.1252 3.75586 20.265C3.75586 20.5521 3.98857 20.7848 4.27493 20.7848C4.41319 20.7848 4.54315 20.7319 4.64137 20.6337L7.5427 17.7309L10.4327 20.6224C10.5355 20.7282 10.6669 20.7848 10.809 20.7848C11.0946 20.7848 11.3273 20.5521 11.3273 20.265C11.3273 20.1267 11.2744 19.9968 11.1762 19.8986L8.28239 16.9927L8.28315 16.9957ZM25.4955 16.995C25.4955 17.5163 25.9186 17.9394 26.4399 17.9394C26.9582 17.9394 27.3813 17.5163 27.3813 16.995C27.3813 16.4736 26.9582 16.0505 26.4391 16.0505C25.9201 16.0505 25.4977 16.4736 25.4977 16.995H25.4955ZM23.7086 16.995C23.7086 15.4876 24.9326 14.2598 26.4391 14.2598C27.9427 14.2598 29.169 15.4876 29.169 16.995C29.169 18.5023 27.9435 19.7301 26.4391 19.7301C24.9333 19.7301 23.7086 18.5038 23.7086 16.995ZM22.6342 16.995C22.6342 19.0954 24.3417 20.806 26.4391 20.806C28.5366 20.806 30.2441 19.0969 30.2441 16.9957C30.2441 14.8953 28.5366 13.1847 26.4391 13.1847C24.341 13.1847 22.6342 14.8945 22.6342 16.9957V16.995ZM22.3644 13.2497H22.2058C21.726 13.2497 21.2636 13.4008 20.8775 13.6992C20.8246 13.468 20.6161 13.2912 20.3683 13.2912C20.0834 13.2912 19.8545 13.5217 19.8545 13.808L19.856 20.2265C19.856 20.5113 20.0902 20.7433 20.3735 20.7433C20.6591 20.7433 20.8919 20.5113 20.8926 20.225V16.2779C20.8926 14.9633 21.0135 14.4314 22.1378 14.2908C22.2435 14.278 22.3554 14.2802 22.3569 14.2802C22.6636 14.2689 22.8827 14.0566 22.8827 13.7702C22.8827 13.4831 22.6485 13.2504 22.3614 13.2504L22.3644 13.2497ZM12.4017 16.3686C12.4017 16.3535 12.4032 16.3384 12.4039 16.3248C12.7047 15.131 13.7836 14.2493 15.0673 14.2493C16.3668 14.2493 17.4548 15.1514 17.7419 16.3663H12.4009L12.4017 16.3686ZM18.8035 16.2704C18.5799 15.2103 18.0003 14.3392 17.1186 13.7801C15.8281 12.9595 14.1251 13.0049 12.8799 13.8934C11.863 14.6165 11.2759 15.8012 11.2759 17.0214C11.2759 17.3274 11.3137 17.6364 11.3892 17.9409C11.7731 19.452 13.0711 20.5974 14.6185 20.7871C15.0779 20.843 15.5251 20.8173 15.986 20.6964C16.385 20.5982 16.7695 20.438 17.1239 20.2098C17.4919 19.9734 17.7994 19.6606 18.0986 19.2866C18.1031 19.279 18.1091 19.2737 18.1152 19.2662C18.3222 19.0093 18.2837 18.6421 18.057 18.4683C17.8651 18.321 17.5432 18.2613 17.2909 18.5862C17.2365 18.6647 17.1753 18.7448 17.1095 18.8242C16.9078 19.047 16.6577 19.2624 16.3585 19.4301C15.9762 19.6341 15.5425 19.7497 15.0816 19.7527C13.572 19.7354 12.7651 18.6798 12.4772 17.9273C12.4274 17.786 12.3888 17.6402 12.3616 17.4891L12.3541 17.4098H17.7714C18.5134 17.3931 18.9123 16.868 18.802 16.2689L18.8035 16.2704Z" fill="white"/>
</svg>
